<?xml version="1.0" encoding="UTF-8" standalone="no"?>
<!-- Created with Inkscape (http://www.inkscape.org/) -->

<svg
   xmlns:dc="http://purl.org/dc/elements/1.1/"
   xmlns:cc="http://creativecommons.org/ns#"
   xmlns:rdf="http://www.w3.org/1999/02/22-rdf-syntax-ns#"
   xmlns:svg="http://www.w3.org/2000/svg"
   xmlns="http://www.w3.org/2000/svg"
   xmlns:sodipodi="http://sodipodi.sourceforge.net/DTD/sodipodi-0.dtd"
   xmlns:inkscape="http://www.inkscape.org/namespaces/inkscape"
   width="2303.1497"
   height="1417.3228"
   id="svg2"
   version="1.1"
   inkscape:version="0.48.4 r9939"
   sodipodi:docname="drawing.svg">
  <defs
     id="defs4" />
  <sodipodi:namedview
     id="base"
     pagecolor="#ffffff"
     bordercolor="#666666"
     borderopacity="1.0"
     inkscape:pageopacity="0.0"
     inkscape:pageshadow="2"
     inkscape:zoom="0.59337226"
     inkscape:cx="540.93713"
     inkscape:cy="1038.5574"
     inkscape:document-units="mm"
     inkscape:current-layer="layer1"
     showgrid="true"
     units="mm"
     inkscape:window-width="1920"
     inkscape:window-height="1027"
     inkscape:window-x="0"
     inkscape:window-y="0"
     inkscape:window-maximized="1"
     inkscape:snap-grids="true"
     gridtolerance="10000"
     inkscape:snap-object-midpoints="false"
     inkscape:object-paths="true"
     inkscape:object-nodes="false"
     inkscape:snap-intersection-paths="false"
     inkscape:snap-center="false"
     inkscape:snap-nodes="true"
     inkscape:snap-bbox="true">
    <inkscape:grid
       type="xygrid"
       id="grid2987"
       empspacing="5"
       visible="true"
       enabled="true"
       snapvisiblegridlinesonly="true"
       units="mm"
       spacingx="1mm"
       spacingy="1mm"
       dotted="true" />
  </sodipodi:namedview>
  <metadata
     id="metadata7">
    <rdf:RDF>
      <cc:Work
         rdf:about="">
        <dc:format>image/svg+xml</dc:format>
        <dc:type
           rdf:resource="http://purl.org/dc/dcmitype/StillImage" />
        <dc:title></dc:title>
      </cc:Work>
    </rdf:RDF>
  </metadata>
  <g
     inkscape:label="Layer 1"
     inkscape:groupmode="layer"
     id="layer1"
     transform="translate(0,364.96066)">
    <g
       id="g4879"
       transform="translate(0.49997043,-34.933028)">
      <path
         sodipodi:nodetypes="ccccc"
         inkscape:connector-curvature="0"
         id="rect3024-7"
         d="m 17.716565,-223.22846 0,159.448805 1399.606335,10e-6 17.7165,-159.448815 z"
         style="fill:none;stroke:#ff0000;stroke-opacity:1" />
      <path
         transform="matrix(0,1,1,0,-292.3227,-506.69301)"
         d="m 407.4803,398.62198 c 0,24.46143 -19.8299,44.29134 -44.29134,44.29134 -24.46143,0 -44.29134,-19.82991 -44.29134,-44.29134 0,-24.46143 19.82991,-44.29134 44.29134,-44.29134 24.46144,0 44.29134,19.82991 44.29134,44.29134 z"
         sodipodi:ry="44.29134"
         sodipodi:rx="44.29134"
         sodipodi:cy="398.62198"
         sodipodi:cx="363.18896"
         id="path3812"
         style="fill:none;stroke:#00ff00;stroke-opacity:1"
         sodipodi:type="arc" />
      <rect
         transform="matrix(0,1,-1,0,0,0)"
         y="-761.8111"
         x="-222.87418"
         height="194.88193"
         width="17.716536"
         id="rect3829-6"
         style="fill:none;stroke:#00ff00;stroke-opacity:1" />
      <rect
         y="-1098.4253"
         x="-223.2285"
         height="159.44882"
         width="17.716536"
         id="rect3884"
         style="fill:none;stroke:#00ff00;stroke-opacity:1"
         transform="matrix(0,1,-1,0,0,0)" />
      <rect
         style="fill:none;stroke:#00ff00;stroke-opacity:1"
         id="rect3890"
         width="17.716536"
         height="194.88185"
         x="-223.22845"
         y="-389.76385"
         transform="matrix(0,1,-1,0,0,0)" />
      <rect
         transform="matrix(0,1,-1,0,0,0)"
         style="fill:none;stroke:#00ff00;stroke-opacity:1"
         id="rect3944"
         width="17.716536"
         height="159.44882"
         x="-223.2285"
         y="-1346.4568" />
      <path
         sodipodi:type="arc"
         style="fill:none;stroke:#00ff00;stroke-opacity:1"
         id="path4056"
         sodipodi:cx="363.18896"
         sodipodi:cy="398.62198"
         sodipodi:rx="44.29134"
         sodipodi:ry="44.29134"
         d="m 407.4803,398.62198 c 0,24.46143 -19.8299,44.29134 -44.29134,44.29134 -24.46143,0 -44.29134,-19.82991 -44.29134,-44.29134 0,-24.46143 19.82991,-44.29134 44.29134,-44.29134 24.46144,0 44.29134,19.82991 44.29134,44.29134 z"
         transform="matrix(0,1,1,0,451.77179,-506.33869)" />
      <rect
         style="fill:none;stroke:#00ff00;stroke-opacity:1"
         id="rect4076"
         width="17.716536"
         height="194.88193"
         x="-81.141884"
         y="-761.81104"
         transform="matrix(0,1,-1,0,0,0)" />
      <rect
         transform="matrix(0,1,-1,0,0,0)"
         style="fill:none;stroke:#00ff00;stroke-opacity:1"
         id="rect4078"
         width="17.716536"
         height="159.44882"
         x="-81.496201"
         y="-1098.4252" />
      <rect
         transform="matrix(0,1,-1,0,0,0)"
         y="-389.76382"
         x="-81.496201"
         height="194.88185"
         width="17.716536"
         id="rect4080"
         style="fill:none;stroke:#00ff00;stroke-opacity:1" />
      <rect
         y="-1346.4567"
         x="-81.496201"
         height="159.44882"
         width="17.716536"
         id="rect4082"
         style="fill:none;stroke:#00ff00;stroke-opacity:1"
         transform="matrix(0,1,-1,0,0,0)" />
    </g>
    <g
       id="g4912"
       transform="translate(0.49997043,-70.366105)">
      <path
         sodipodi:nodetypes="ccccc"
         inkscape:connector-curvature="0"
         id="rect4086"
         d="m 17.716565,60.236085 0,159.448815 1417.322835,0 -17.7165,-159.448795 z"
         style="fill:none;stroke:#ff0000;stroke-opacity:1" />
      <path
         sodipodi:type="arc"
         style="fill:none;stroke:#00ff00;stroke-opacity:1"
         id="path4088"
         sodipodi:cx="363.18896"
         sodipodi:cy="398.62198"
         sodipodi:rx="44.29134"
         sodipodi:ry="44.29134"
         d="m 407.4803,398.62198 c 0,24.46143 -19.8299,44.29134 -44.29134,44.29134 -24.46143,0 -44.29134,-19.82991 -44.29134,-44.29134 0,-24.46143 19.82991,-44.29134 44.29134,-44.29134 24.46144,0 44.29134,19.82991 44.29134,44.29134 z"
         transform="matrix(0,1,1,0,-292.32271,-223.22843)" />
      <rect
         style="fill:none;stroke:#00ff00;stroke-opacity:1"
         id="rect4090"
         width="17.716536"
         height="194.88193"
         x="60.236073"
         y="-761.8111"
         transform="matrix(0,1,-1,0,0,0)" />
      <rect
         transform="matrix(0,1,-1,0,0,0)"
         style="fill:none;stroke:#00ff00;stroke-opacity:1"
         id="rect4092"
         width="17.716536"
         height="159.44882"
         x="60.236073"
         y="-1098.4253" />
      <rect
         transform="matrix(0,1,-1,0,0,0)"
         y="-389.76385"
         x="60.236073"
         height="194.88185"
         width="17.716536"
         id="rect4094"
         style="fill:none;stroke:#00ff00;stroke-opacity:1" />
      <rect
         y="-1346.4568"
         x="60.236073"
         height="159.44882"
         width="17.716536"
         id="rect4096"
         style="fill:none;stroke:#00ff00;stroke-opacity:1"
         transform="matrix(0,1,-1,0,0,0)" />
      <path
         transform="matrix(0,1,1,0,451.77178,-223.22843)"
         d="m 407.4803,398.62198 c 0,24.46143 -19.8299,44.29134 -44.29134,44.29134 -24.46143,0 -44.29134,-19.82991 -44.29134,-44.29134 0,-24.46143 19.82991,-44.29134 44.29134,-44.29134 24.46144,0 44.29134,19.82991 44.29134,44.29134 z"
         sodipodi:ry="44.29134"
         sodipodi:rx="44.29134"
         sodipodi:cy="398.62198"
         sodipodi:cx="363.18896"
         id="path4108"
         style="fill:none;stroke:#00ff00;stroke-opacity:1"
         sodipodi:type="arc" />
      <rect
         transform="matrix(0,1,-1,0,0,0)"
         y="-761.81104"
         x="201.96835"
         height="194.88193"
         width="17.716536"
         id="rect4110"
         style="fill:none;stroke:#00ff00;stroke-opacity:1" />
      <rect
         y="-1098.4252"
         x="201.96835"
         height="159.44882"
         width="17.716536"
         id="rect4112"
         style="fill:none;stroke:#00ff00;stroke-opacity:1"
         transform="matrix(0,1,-1,0,0,0)" />
      <rect
         style="fill:none;stroke:#00ff00;stroke-opacity:1"
         id="rect4114"
         width="17.716536"
         height="194.88185"
         x="201.96835"
         y="-389.76379"
         transform="matrix(0,1,-1,0,0,0)" />
      <rect
         transform="matrix(0,1,-1,0,0,0)"
         style="fill:none;stroke:#00ff00;stroke-opacity:1"
         id="rect4116"
         width="17.716536"
         height="159.44882"
         x="201.96835"
         y="-1346.4567" />
    </g>
    <g
       id="g4902"
       transform="translate(-0.50017866,-52.649604)">
      <path
         sodipodi:nodetypes="ccccc"
         inkscape:connector-curvature="0"
         id="rect4084"
         d="m 17.716655,-46.063105 0,88.58268 1399.606245,-1e-5 0,-88.58267 z"
         style="fill:none;stroke:#ff0000;stroke-opacity:1" />
      <rect
         transform="matrix(0,1,1,0,0,0)"
         y="389.76385"
         x="-10.275728"
         height="177.16536"
         width="17.716536"
         id="rect4098"
         style="fill:none;stroke:#00ff00;stroke-opacity:1" />
      <rect
         transform="matrix(0,1,1,0,0,0)"
         y="761.8111"
         x="-10.275728"
         height="177.16534"
         width="17.716536"
         id="rect4100"
         style="fill:none;stroke:#00ff00;stroke-opacity:1" />
      <rect
         transform="matrix(0,1,1,0,0,0)"
         style="fill:none;stroke:#00ff00;stroke-opacity:1"
         id="rect4102"
         width="17.716536"
         height="88.582672"
         x="-10.630048"
         y="1098.4253" />
      <rect
         transform="matrix(0,1,1,0,0,0)"
         y="1346.4568"
         x="-10.630048"
         height="70.866226"
         width="17.716536"
         id="rect4104"
         style="fill:none;stroke:#00ff00;stroke-opacity:1" />
      <rect
         transform="matrix(0,1,1,0,0,0)"
         y="17.71664"
         x="-10.630048"
         height="177.1653"
         width="17.716536"
         id="rect4106"
         style="fill:none;stroke:#00ff00;stroke-opacity:1" />
      <path
         sodipodi:nodetypes="ccccccccccccccccccccccccccccccccccccccccccccccccccccccccccc"
         inkscape:connector-curvature="0"
         id="path4635"
         d="m 313.81891,-27.637928 -4.37003,0 0,4.370097 0,4.370049 -4.37012,0 -4.37007,0 0,-4.370049 0,-4.370097 -4.3701,0 -4.37007,0 0,4.370097 0,4.370049 -4.37007,0 -4.37008,0 0,-4.370049 0,-4.370097 -4.37009,0 -4.37008,0 0,4.370097 0,4.370049 -4.37007,0 -4.3701,0 0,21.8504407 0,21.8503803 17.48034,0 17.48032,0 0,-8.740148 0,-8.7401827 -4.3701,0 -4.37007,0 0,-4.3700496 0,-4.3700967 8.74017,0 8.74019,0 0,8.7401463 0,8.7401827 4.37003,0 4.3701,0 0,-21.8503786 0,-21.8504404 z m -26.22046,43.700819 -4.37008,0 0,-4.370084 0,-4.3700987 4.37008,0 4.37007,0 0,4.3700987 0,4.370084 z m -8.74017,-17.480329 -4.37008,0 0,-4.3700496 0,-4.3700984 4.37008,0 4.37009,0 0,4.3700984 0,4.3700496 z"
         style="fill:none;stroke:#ffff00;stroke-opacity:1" />
      <path
         style="fill:none;stroke:#ffff00;stroke-opacity:1"
         d="m 1040.1969,-27.637928 -4.37,0 0,4.370097 0,4.370049 -4.3701,0 -4.3701,0 0,-4.370049 0,-4.370097 -4.3701,0 -4.3701,0 0,4.370097 0,4.370049 -4.3701,0 -4.37,0 0,-4.370049 0,-4.370097 -4.3701,0 -4.3701,0 0,4.370097 0,4.370049 -4.37012,0 -4.3701,0 0,21.8504407 0,21.8503803 17.48042,0 17.4803,0 0,-8.740148 0,-8.7401827 -4.3701,0 -4.3701,0 0,-4.3700496 0,-4.3700967 8.7402,0 8.7402,0 0,8.7401463 0,8.7401827 4.37,0 4.3701,0 0,-21.8503786 0,-21.8504404 z m -26.2205,43.700819 -4.37,0 0,-4.370084 0,-4.3700987 4.37,0 4.3701,0 0,4.3700987 0,4.370084 z m -8.7401,-17.480329 -4.3701,0 0,-4.3700496 0,-4.3700984 4.3701,0 4.3701,0 0,4.3700984 0,4.3700496 z"
         id="path4712"
         inkscape:connector-curvature="0"
         sodipodi:nodetypes="ccccccccccccccccccccccccccccccccccccccccccccccccccccccccccc" />
    </g>
    <g
       id="g4892"
       transform="translate(0.99994455,-1.5306348e-5)">
      <path
         style="fill:none;stroke:#ff0000;stroke-opacity:1"
         d="m 17.216607,-346.74419 0,88.58269 1417.322793,-1e-5 0,-88.58268 z"
         id="path4684"
         inkscape:connector-curvature="0"
         sodipodi:nodetypes="ccccc" />
      <rect
         style="fill:none;stroke:#00ff00;stroke-opacity:1"
         id="rect4686"
         width="17.716536"
         height="177.16536"
         x="-310.95682"
         y="389.26382"
         transform="matrix(0,1,1,0,0,0)" />
      <rect
         style="fill:none;stroke:#00ff00;stroke-opacity:1"
         id="rect4688"
         width="17.716536"
         height="177.16534"
         x="-310.95682"
         y="761.31104"
         transform="matrix(0,1,1,0,0,0)" />
      <rect
         y="1097.9253"
         x="-311.31113"
         height="88.582672"
         width="17.716536"
         id="rect4690"
         style="fill:none;stroke:#00ff00;stroke-opacity:1"
         transform="matrix(0,1,1,0,0,0)" />
      <rect
         style="fill:none;stroke:#00ff00;stroke-opacity:1"
         id="rect4692"
         width="17.716536"
         height="88.582603"
         x="-311.31113"
         y="1345.9568"
         transform="matrix(0,1,1,0,0,0)" />
      <rect
         style="fill:none;stroke:#00ff00;stroke-opacity:1"
         id="rect4694"
         width="17.716536"
         height="177.1653"
         x="-311.31113"
         y="17.216591"
         transform="matrix(0,1,1,0,0,0)" />
      <path
         style="fill:none;stroke:#ffff00;stroke-opacity:1"
         d="m 313.31886,-328.31901 -4.37003,0 0,4.3701 0,4.37005 -4.37012,0 -4.37007,0 0,-4.37005 0,-4.3701 -4.3701,0 -4.37007,0 0,4.3701 0,4.37005 -4.37007,0 -4.37008,0 0,-4.37005 0,-4.3701 -4.37009,0 -4.37008,0 0,4.3701 0,4.37005 -4.37007,0 -4.3701,0 0,21.85044 0,21.85038 17.48034,0 17.48032,0 0,-8.74015 0,-8.74018 -4.3701,0 -4.37007,0 0,-4.37005 0,-4.3701 8.74017,0 8.74019,0 0,8.74015 0,8.74018 4.37003,0 4.3701,0 0,-21.85038 0,-21.85044 z m -26.22046,43.70082 -4.37008,0 0,-4.37008 0,-4.3701 4.37008,0 4.37007,0 0,4.3701 0,4.37008 z m -8.74017,-17.48033 -4.37008,0 0,-4.37005 0,-4.3701 4.37008,0 4.37009,0 0,4.3701 0,4.37005 z"
         id="path4696"
         inkscape:connector-curvature="0"
         sodipodi:nodetypes="ccccccccccccccccccccccccccccccccccccccccccccccccccccccccccc" />
      <path
         sodipodi:nodetypes="ccccccccccccccccccccccccccccccccccccccccccccccccccccccccccc"
         inkscape:connector-curvature="0"
         id="path4714"
         d="m 1039.6969,-328.31901 -4.37,0 0,4.3701 0,4.37005 -4.3701,0 -4.3701,0 0,-4.37005 0,-4.3701 -4.3701,0 -4.3701,0 0,4.3701 0,4.37005 -4.3701,0 -4.37,0 0,-4.37005 0,-4.3701 -4.3701,0 -4.3701,0 0,4.3701 0,4.37005 -4.37017,0 -4.3701,0 0,21.85044 0,21.85038 17.48047,0 17.4803,0 0,-8.74015 0,-8.74018 -4.3701,0 -4.3701,0 0,-4.37005 0,-4.3701 8.7402,0 8.7402,0 0,8.74015 0,8.74018 4.37,0 4.3701,0 0,-21.85038 0,-21.85044 z m -26.2205,43.70082 -4.37,0 0,-4.37008 0,-4.3701 4.37,0 4.3701,0 0,4.3701 0,4.37008 z m -8.7401,-17.48033 -4.3701,0 0,-4.37005 0,-4.3701 4.3701,0 4.3701,0 0,4.3701 0,4.37005 z"
         style="fill:none;stroke:#ffff00;stroke-opacity:1" />
    </g>
    <g
       id="g4951"
       transform="translate(-442.91348,123.01575)">
      <rect
         style="fill:none;stroke:#ff0000;stroke-opacity:1"
         id="rect4214"
         width="194.8819"
         height="124.01575"
         x="-850.8938"
         y="149.31879"
         transform="scale(-1,1)"
         ry="17.716536" />
      <path
         id="rect4216"
         d="m 673.71875,167.05042 0,38.96875 0,10.625 0,38.96875 10.625,0 0,-38.96875 138.21875,0 0,38.96875 10.625,0 0,-38.96875 0,-10.625 0,-38.96875 -10.625,0 0,38.96875 -138.21875,0 0,-38.96875 -10.625,0 z"
         style="fill:none;stroke:#00ff00;stroke-opacity:1"
         inkscape:connector-curvature="0" />
    </g>
    <g
       id="g4947"
       transform="translate(-425.19686,123.01575)">
      <rect
         style="fill:none;stroke:#ff0000;stroke-opacity:1"
         id="rect4214-2"
         width="194.8819"
         height="124.01575"
         x="-638.29529"
         y="149.31879"
         transform="scale(-1,1)"
         ry="17.716536" />
      <path
         id="rect4216-5"
         d="m 461.12024,167.05043 0,38.96875 0,10.625 0,38.96875 10.625,0 0,-38.96875 138.21876,0 0,38.96875 10.625,0 0,-38.96875 0,-10.625 0,-38.96875 -10.625,0 0,38.96875 -138.21876,0 0,-38.96875 -10.625,0 z"
         style="fill:none;stroke:#00ff00;stroke-opacity:1"
         inkscape:connector-curvature="0" />
    </g>
    <g
       id="g4943"
       transform="translate(-18.716615,-0.99999884)">
      <rect
         style="fill:none;stroke:#ff0000;stroke-opacity:1"
         id="rect4214-3"
         width="194.8819"
         height="124.01575"
         x="-425.69693"
         y="149.31879"
         transform="scale(-1,1)"
         ry="17.716536" />
      <path
         id="rect4216-1"
         d="m 248.52189,167.05043 0,38.96875 0,10.625 0,38.96875 10.625,0 0,-38.96875 138.21875,0 0,38.96875 10.625,0 0,-38.96875 0,-10.625 0,-38.96875 -10.625,0 0,38.96875 -138.21875,0 0,-38.96875 -10.625,0 z"
         style="fill:none;stroke:#00ff00;stroke-opacity:1"
         inkscape:connector-curvature="0" />
    </g>
    <g
       id="g4955">
      <rect
         style="fill:none;stroke:#ff0000;stroke-opacity:1"
         id="rect4214-2-7"
         width="194.8819"
         height="124.01575"
         x="-213.09843"
         y="149.31879"
         transform="scale(-1,1)"
         ry="17.716536" />
      <path
         id="rect4216-5-7"
         d="m 35.923374,167.05044 0,38.96875 0,10.625 0,38.96875 10.625,0 0,-38.96875 138.218766,0 0,38.96875 10.625,0 0,-38.96875 0,-10.625 0,-38.96875 -10.625,0 0,38.96875 -138.218766,0 0,-38.96875 -10.625,0 z"
         style="fill:none;stroke:#00ff00;stroke-opacity:1"
         inkscape:connector-curvature="0" />
    </g>
    <g
       id="g4959"
       transform="translate(123.51576,-283.96456)">
      <path
         sodipodi:type="arc"
         style="fill:none;stroke:#00ff00;stroke-opacity:1"
         id="path4088-0"
         sodipodi:cx="363.18896"
         sodipodi:cy="398.62198"
         sodipodi:rx="44.29134"
         sodipodi:ry="44.29134"
         d="m 407.4803,398.62198 c 0,24.46143 -19.8299,44.29134 -44.29134,44.29134 -24.46143,0 -44.29134,-19.82991 -44.29134,-44.29134 0,-24.46143 19.82991,-44.29134 44.29134,-44.29134 24.46144,0 44.29134,19.82991 44.29134,44.29134 z"
         transform="matrix(0,1,1,0,8.8583362,193.11014)" />
      <path
         inkscape:transform-center-y="6.701096"
         transform="translate(0,-364.96066)"
         d="m 407.48032,1045.2755 -87.69237,-36.3234 -36.32337,-87.69233 36.32336,-87.69237 87.69237,-36.32337 87.69237,36.32336 36.32338,87.69237 -36.32337,87.69234 z"
         inkscape:randomized="0"
         inkscape:rounded="0"
         inkscape:flatsided="true"
         sodipodi:arg2="1.9634954"
         sodipodi:arg1="1.5707963"
         sodipodi:r2="181.47971"
         sodipodi:r1="124.01574"
         sodipodi:cy="921.25977"
         sodipodi:cx="407.48032"
         sodipodi:sides="8"
         id="path4877"
         style="fill:none;stroke:#ff0000;stroke-opacity:1"
         sodipodi:type="star" />
    </g>
  </g>
</svg>
