<?xml version="1.0" encoding="UTF-8" standalone="no"?>
<!-- Created with Inkscape (http://www.inkscape.org/) -->

<svg
   xmlns:dc="http://purl.org/dc/elements/1.1/"
   xmlns:cc="http://creativecommons.org/ns#"
   xmlns:rdf="http://www.w3.org/1999/02/22-rdf-syntax-ns#"
   xmlns:svg="http://www.w3.org/2000/svg"
   xmlns="http://www.w3.org/2000/svg"
   xmlns:sodipodi="http://sodipodi.sourceforge.net/DTD/sodipodi-0.dtd"
   xmlns:inkscape="http://www.inkscape.org/namespaces/inkscape"
   width="2303.1497"
   height="1417.3228"
   id="svg2"
   version="1.1"
   inkscape:version="0.48.4 r9939"
   sodipodi:docname="loom2b.svg">
  <defs
     id="defs4" />
  <sodipodi:namedview
     id="base"
     pagecolor="#ffffff"
     bordercolor="#666666"
     borderopacity="1.0"
     inkscape:pageopacity="0.0"
     inkscape:pageshadow="2"
     inkscape:zoom="0.70710678"
     inkscape:cx="785.78203"
     inkscape:cy="854.61133"
     inkscape:document-units="mm"
     inkscape:current-layer="layer1"
     showgrid="true"
     units="mm"
     inkscape:window-width="1920"
     inkscape:window-height="1027"
     inkscape:window-x="0"
     inkscape:window-y="0"
     inkscape:window-maximized="1"
     inkscape:snap-grids="true"
     gridtolerance="10000"
     inkscape:snap-object-midpoints="false"
     inkscape:object-paths="true"
     inkscape:object-nodes="false"
     inkscape:snap-intersection-paths="false"
     inkscape:snap-center="false"
     inkscape:snap-nodes="true"
     inkscape:snap-bbox="true"
     showguides="false"
     inkscape:guide-bbox="true">
    <inkscape:grid
       type="xygrid"
       id="grid2987"
       empspacing="5"
       visible="true"
       enabled="true"
       snapvisiblegridlinesonly="true"
       units="mm"
       spacingx="1mm"
       spacingy="1mm"
       dotted="true" />
  </sodipodi:namedview>
  <metadata
     id="metadata7">
    <rdf:RDF>
      <cc:Work
         rdf:about="">
        <dc:format>image/svg+xml</dc:format>
        <dc:type
           rdf:resource="http://purl.org/dc/dcmitype/StillImage" />
        <dc:title></dc:title>
      </cc:Work>
    </rdf:RDF>
  </metadata>
  <g
     inkscape:label="Layer 1"
     inkscape:groupmode="layer"
     id="layer1"
     transform="translate(0,364.96066)">
    <path
       sodipodi:nodetypes="ccccc"
       inkscape:connector-curvature="0"
       id="path4684"
       d="m 35.433071,-329.52768 0,88.58269 1452.755929,-1e-5 0,-88.58268 z"
       style="fill:#ffff00;stroke:#000000;stroke-opacity:1;stroke-width:0;stroke-miterlimit:4;stroke-dasharray:none" />
    <rect
       transform="matrix(0,1,1,0,0,0)"
       y="407.48032"
       x="-251.57491"
       height="177.16536"
       width="10.629921"
       id="rect4686"
       style="fill:#ff00ff;stroke:#0000ff;stroke-opacity:1;stroke-width:0;stroke-miterlimit:4;stroke-dasharray:none" />
    <rect
       transform="matrix(0,1,1,0,0,0)"
       y="779.52759"
       x="-251.57491"
       height="177.16534"
       width="10.629921"
       id="rect4688"
       style="fill:#ff00ff;stroke:#0000ff;stroke-opacity:1;stroke-width:0;stroke-miterlimit:4;stroke-dasharray:none" />
    <rect
       transform="matrix(0,1,1,0,0,0)"
       style="fill:#ff00ff;stroke:#0000ff;stroke-opacity:1;stroke-width:0;stroke-miterlimit:4;stroke-dasharray:none"
       id="rect4690"
       width="10.629921"
       height="88.582672"
       x="-251.57491"
       y="1116.1417" />
    <rect
       transform="matrix(0,1,1,0,0,0)"
       y="1364.1732"
       x="-251.57491"
       height="124.01576"
       width="10.629921"
       id="rect4692"
       style="fill:#ff00ff;stroke:#0000ff;stroke-opacity:1;stroke-width:0;stroke-miterlimit:4;stroke-dasharray:none" />
    <rect
       transform="matrix(0,1,1,0,0,0)"
       y="35.433071"
       x="-251.57491"
       height="177.1653"
       width="10.629921"
       id="rect4694"
       style="fill:#ff00ff;stroke:#0000ff;stroke-opacity:1;stroke-width:0;stroke-miterlimit:4;stroke-dasharray:none" />
    <path
       sodipodi:nodetypes="ccccccccccccccccccccccccccccccccccccccccccccccccccccccccccc"
       inkscape:connector-curvature="0"
       id="path4696"
       d="m 332.18502,-311.81113 -4.42908,0 0,4.42916 0,4.4291 -4.42917,0 -4.42912,0 0,-4.4291 0,-4.42916 -4.42915,0 -4.42913,0 0,4.42916 0,4.4291 -4.42912,0 -4.42913,0 0,-4.4291 0,-4.42916 -4.42914,0 -4.42914,0 0,4.42916 0,4.4291 -4.42912,0 -4.42915,0 0,22.14571 0,22.14564 17.71655,0 17.71653,0 0,-8.85826 0,-8.85828 -4.42915,0 -4.42913,0 0,-4.4291 0,-4.42916 8.85828,0 8.85829,0 0,8.85826 0,8.85828 4.42908,0 4.42916,0 0,-22.14564 0,-22.14571 z m -26.57477,44.29135 -4.42913,0 0,-4.42913 0,-4.42915 4.42913,0 4.42912,0 0,4.42915 0,4.42913 z m -8.85827,-17.71654 -4.42914,0 0,-4.4291 0,-4.42915 4.42914,0 4.42914,0 0,4.42915 0,4.4291 z"
       style="fill:#ff0000;stroke:#000000;stroke-opacity:1;stroke-width:0;stroke-miterlimit:4;stroke-dasharray:none" />
    <path
       sodipodi:type="star"
       style="fill:#ff0000;stroke:#000000;stroke-width:0;stroke-miterlimit:4;stroke-opacity:1;stroke-dasharray:none"
       id="path4877"
       sodipodi:sides="8"
       sodipodi:cx="407.48032"
       sodipodi:cy="921.25977"
       sodipodi:r1="124.01574"
       sodipodi:r2="181.47971"
       sodipodi:arg1="1.5707963"
       sodipodi:arg2="1.9634954"
       inkscape:flatsided="true"
       inkscape:rounded="0"
       inkscape:randomized="0"
       d="m 407.48032,1045.2755 -87.69237,-36.3234 -36.32337,-87.69233 36.32336,-87.69237 87.69237,-36.32337 87.69237,36.32336 36.32338,87.69237 -36.32337,87.69234 z"
       transform="translate(141.73222,-559.84255)"
       inkscape:transform-center-y="6.7010968" />
    <path
       style="fill:#ffff00;stroke:#000000;stroke-width:0;stroke-miterlimit:4;stroke-opacity:1;stroke-dasharray:none"
       d="m 35.433044,-223.22847 0,159.448808 1434.596556,1e-5 18.1594,-159.448818 z"
       id="rect3024-7"
       inkscape:connector-curvature="0"
       sodipodi:nodetypes="ccccc" />
    <path
       sodipodi:type="arc"
       style="fill:#00ff00;stroke:#00ff00;stroke-width:0;stroke-miterlimit:4;stroke-opacity:1;stroke-dasharray:none"
       id="path3812"
       sodipodi:cx="363.18896"
       sodipodi:cy="398.62198"
       sodipodi:rx="44.29134"
       sodipodi:ry="44.29134"
       d="m 407.4803,398.62198 a 44.29134,44.29134 0 1 1 -88.58268,0 44.29134,44.29134 0 1 1 88.58268,0 z"
       transform="matrix(0,1,1,0,-265.74794,-506.69303)" />
    <path
       transform="matrix(0,1,1,0,487.20481,-506.69303)"
       d="m 407.4803,398.62198 a 44.29134,44.29134 0 1 1 -88.58268,0 44.29134,44.29134 0 1 1 88.58268,0 z"
       sodipodi:ry="44.29134"
       sodipodi:rx="44.29134"
       sodipodi:cy="398.62198"
       sodipodi:cx="363.18896"
       id="path4056"
       style="fill:#00ff00;stroke:#00ff00;stroke-width:0;stroke-miterlimit:4;stroke-opacity:1;stroke-dasharray:none"
       sodipodi:type="arc" />
    <rect
       transform="matrix(0,1,-1,0,0,0)"
       y="-779.52747"
       x="-74.409584"
       height="194.88193"
       width="10.629921"
       id="rect4076"
       style="fill:#ff00ff;stroke:#0000ff;stroke-width:0;stroke-miterlimit:4;stroke-opacity:1;stroke-dasharray:none" />
    <rect
       y="-1116.1415"
       x="-74.409584"
       height="159.44882"
       width="10.629921"
       id="rect4078"
       style="fill:#ff00ff;stroke:#0000ff;stroke-width:0;stroke-miterlimit:4;stroke-opacity:1;stroke-dasharray:none"
       transform="matrix(0,1,-1,0,0,0)" />
    <rect
       style="fill:#ff00ff;stroke:#0000ff;stroke-width:0;stroke-miterlimit:4;stroke-opacity:1;stroke-dasharray:none"
       id="rect4080"
       width="10.629921"
       height="194.88185"
       x="-74.409584"
       y="-407.48029"
       transform="matrix(0,1,-1,0,0,0)" />
    <rect
       transform="matrix(0,1,-1,0,0,0)"
       style="fill:#ff00ff;stroke:#0000ff;stroke-width:0;stroke-miterlimit:4;stroke-opacity:1;stroke-dasharray:none"
       id="rect4082"
       width="10.629921"
       height="159.44882"
       x="-74.409584"
       y="-1364.173" />
    <rect
       style="fill:#ff00ff;stroke:#0000ff;stroke-width:0;stroke-miterlimit:4;stroke-opacity:1;stroke-dasharray:none"
       id="rect3150"
       width="10.629921"
       height="194.88193"
       x="-223.22847"
       y="-779.52747"
       transform="matrix(0,1,-1,0,0,0)" />
    <rect
       transform="matrix(0,1,-1,0,0,0)"
       style="fill:#ff00ff;stroke:#0000ff;stroke-width:0;stroke-miterlimit:4;stroke-opacity:1;stroke-dasharray:none"
       id="rect3152"
       width="10.629921"
       height="159.44882"
       x="-223.22847"
       y="-1116.1415" />
    <rect
       transform="matrix(0,1,-1,0,0,0)"
       y="-407.48029"
       x="-223.22847"
       height="194.88185"
       width="10.629921"
       id="rect3154"
       style="fill:#ff00ff;stroke:#0000ff;stroke-width:0;stroke-miterlimit:4;stroke-opacity:1;stroke-dasharray:none" />
    <rect
       y="-1364.173"
       x="-223.22847"
       height="159.44882"
       width="10.629921"
       id="rect3156"
       style="fill:#ff00ff;stroke:#0000ff;stroke-width:0;stroke-miterlimit:4;stroke-opacity:1;stroke-dasharray:none"
       transform="matrix(0,1,-1,0,0,0)" />
    <path
       style="fill:#ff0000;stroke:#000000;stroke-opacity:1;stroke-width:0;stroke-miterlimit:4;stroke-dasharray:none"
       d="m 1058.563,-311.81113 -4.4291,0 0,4.42916 0,4.4291 -4.4292,0 -4.4291,0 0,-4.4291 0,-4.42916 -4.4292,0 -4.4291,0 0,4.42916 0,4.4291 -4.4291,0 -4.4291,0 0,-4.4291 0,-4.42916 -4.4292,0 -4.4291,0 0,4.42916 0,4.4291 -4.4291,0 -4.4292,0 0,22.14571 0,22.14564 17.7166,0 17.7165,0 0,-8.85826 0,-8.85828 -4.4292,0 -4.4291,0 0,-4.4291 0,-4.42916 8.8583,0 8.8583,0 0,8.85826 0,8.85828 4.4291,0 4.4291,0 0,-22.14564 0,-22.14571 z m -26.5748,44.29135 -4.4291,0 0,-4.42913 0,-4.42915 4.4291,0 4.4291,0 0,4.42915 0,4.42913 z m -8.8583,-17.71654 -4.4291,0 0,-4.4291 0,-4.42915 4.4291,0 4.4292,0 0,4.42915 0,4.4291 z"
       id="path3224"
       inkscape:connector-curvature="0"
       sodipodi:nodetypes="ccccccccccccccccccccccccccccccccccccccccccccccccccccccccccc" />
    <path
       transform="matrix(0,1,1,0,150.59056,-1.7717608)"
       d="m 407.4803,398.62198 a 44.29134,44.29134 0 1 1 -88.58268,0 44.29134,44.29134 0 1 1 88.58268,0 z"
       sodipodi:ry="44.29134"
       sodipodi:rx="44.29134"
       sodipodi:cy="398.62198"
       sodipodi:cx="363.18896"
       id="path4088-0"
       style="fill:#ffd42a;stroke:#00ff00;stroke-width:0;stroke-miterlimit:4;stroke-opacity:1;stroke-dasharray:none"
       sodipodi:type="arc" />
    <path
       sodipodi:type="star"
       style="fill:#ff0000;stroke:#000000;stroke-width:0;stroke-miterlimit:4;stroke-opacity:1;stroke-dasharray:none"
       id="path4877-8"
       sodipodi:sides="8"
       sodipodi:cx="407.48032"
       sodipodi:cy="921.25977"
       sodipodi:r1="124.01574"
       sodipodi:r2="181.47971"
       sodipodi:arg1="1.5707963"
       sodipodi:arg2="1.9634954"
       inkscape:flatsided="true"
       inkscape:rounded="0"
       inkscape:randomized="0"
       d="m 407.48032,1045.2755 -87.69237,-36.3234 -36.32337,-87.69233 36.32336,-87.69237 87.69237,-36.32337 87.69237,36.32336 36.32338,87.69237 -36.32337,87.69234 z"
       transform="translate(389.76372,-559.84255)"
       inkscape:transform-center-y="6.7010928" />
    <path
       transform="matrix(0,1,1,0,398.62206,-1.7717508)"
       d="m 407.4803,398.62198 a 44.29134,44.29134 0 1 1 -88.58268,0 44.29134,44.29134 0 1 1 88.58268,0 z"
       sodipodi:ry="44.29134"
       sodipodi:rx="44.29134"
       sodipodi:cy="398.62198"
       sodipodi:cx="363.18896"
       id="path4088-0-3"
       style="fill:#ffd42a;stroke:#00ff00;stroke-width:0;stroke-miterlimit:4;stroke-opacity:1;stroke-dasharray:none"
       sodipodi:type="arc" />
    <rect
       style="fill:#ff00ff;stroke:#0000ff;stroke-opacity:1;stroke-width:0;stroke-miterlimit:4;stroke-dasharray:none"
       id="rect4173"
       width="10.629921"
       height="177.16536"
       x="-329.52768"
       y="407.48032"
       transform="matrix(0,1,1,0,0,0)" />
    <rect
       style="fill:#ff00ff;stroke:#0000ff;stroke-opacity:1;stroke-width:0;stroke-miterlimit:4;stroke-dasharray:none"
       id="rect4175"
       width="10.629921"
       height="177.16534"
       x="-329.52768"
       y="779.52759"
       transform="matrix(0,1,1,0,0,0)" />
    <rect
       y="1116.1417"
       x="-329.52768"
       height="88.582672"
       width="10.629921"
       id="rect4177"
       style="fill:#ff00ff;stroke:#0000ff;stroke-opacity:1;stroke-width:0;stroke-miterlimit:4;stroke-dasharray:none"
       transform="matrix(0,1,1,0,0,0)" />
    <rect
       style="fill:#ff00ff;stroke:#0000ff;stroke-opacity:1;stroke-width:0;stroke-miterlimit:4;stroke-dasharray:none"
       id="rect4179"
       width="10.629921"
       height="124.01576"
       x="-329.52768"
       y="1364.1732"
       transform="matrix(0,1,1,0,0,0)" />
    <rect
       style="fill:#ff00ff;stroke:#0000ff;stroke-opacity:1;stroke-width:0;stroke-miterlimit:4;stroke-dasharray:none"
       id="rect4181"
       width="10.629921"
       height="177.1653"
       x="-329.52768"
       y="35.433071"
       transform="matrix(0,1,1,0,0,0)" />
    <path
       style="fill:#ffff00;stroke:#000000;stroke-opacity:1;stroke-width:0;stroke-miterlimit:4;stroke-dasharray:none"
       d="m 35.433071,-329.52768 0,88.58269 1452.755929,-1e-5 0,-88.58268 z"
       id="path4206"
       inkscape:connector-curvature="0"
       sodipodi:nodetypes="ccccc" />
    <rect
       style="fill:#ff00ff;stroke:#0000ff;stroke-opacity:1;stroke-width:0;stroke-miterlimit:4;stroke-dasharray:none"
       id="rect4208"
       width="10.629921"
       height="177.16536"
       x="-251.57491"
       y="407.48032"
       transform="matrix(0,1,1,0,0,0)" />
    <rect
       style="fill:#ff00ff;stroke:#0000ff;stroke-opacity:1;stroke-width:0;stroke-miterlimit:4;stroke-dasharray:none"
       id="rect4210"
       width="10.629921"
       height="177.16534"
       x="-251.57491"
       y="779.52759"
       transform="matrix(0,1,1,0,0,0)" />
    <rect
       y="1116.1417"
       x="-251.57491"
       height="88.582672"
       width="10.629921"
       id="rect4212"
       style="fill:#ff00ff;stroke:#0000ff;stroke-opacity:1;stroke-width:0;stroke-miterlimit:4;stroke-dasharray:none"
       transform="matrix(0,1,1,0,0,0)" />
    <rect
       style="fill:#ff00ff;stroke:#0000ff;stroke-opacity:1;stroke-width:0;stroke-miterlimit:4;stroke-dasharray:none"
       id="rect4214"
       width="10.629921"
       height="124.01576"
       x="-251.57491"
       y="1364.1732"
       transform="matrix(0,1,1,0,0,0)" />
    <rect
       style="fill:#ff00ff;stroke:#0000ff;stroke-opacity:1;stroke-width:0;stroke-miterlimit:4;stroke-dasharray:none"
       id="rect4216"
       width="10.629921"
       height="177.1653"
       x="-251.57491"
       y="35.433071"
       transform="matrix(0,1,1,0,0,0)" />
    <path
       style="fill:#ff0000;stroke:#ff0000;stroke-opacity:1;stroke-width:0;stroke-miterlimit:4;stroke-dasharray:none"
       d="m 332.18502,-311.81113 -4.42908,0 0,4.42916 0,4.4291 -4.42917,0 -4.42912,0 0,-4.4291 0,-4.42916 -4.42915,0 -4.42913,0 0,4.42916 0,4.4291 -4.42912,0 -4.42913,0 0,-4.4291 0,-4.42916 -4.42914,0 -4.42914,0 0,4.42916 0,4.4291 -4.42912,0 -4.42915,0 0,22.14571 0,22.14564 17.71655,0 17.71653,0 0,-8.85826 0,-8.85828 -4.42915,0 -4.42913,0 0,-4.4291 0,-4.42916 8.85828,0 8.85829,0 0,8.85826 0,8.85828 4.42908,0 4.42916,0 0,-22.14564 0,-22.14571 z m -26.57477,44.29135 -4.42913,0 0,-4.42913 0,-4.42915 4.42913,0 4.42912,0 0,4.42915 0,4.42913 z m -8.85827,-17.71654 -4.42914,0 0,-4.4291 0,-4.42915 4.42914,0 4.42914,0 0,4.42915 0,4.4291 z"
       id="path4218"
       inkscape:connector-curvature="0"
       sodipodi:nodetypes="ccccccccccccccccccccccccccccccccccccccccccccccccccccccccccc" />
    <path
       sodipodi:nodetypes="ccccccccccccccccccccccccccccccccccccccccccccccccccccccccccc"
       inkscape:connector-curvature="0"
       id="path4220"
       d="m 1058.563,-311.81113 -4.4291,0 0,4.42916 0,4.4291 -4.4292,0 -4.4291,0 0,-4.4291 0,-4.42916 -4.4292,0 -4.4291,0 0,4.42916 0,4.4291 -4.4291,0 -4.4291,0 0,-4.4291 0,-4.42916 -4.4292,0 -4.4291,0 0,4.42916 0,4.4291 -4.4291,0 -4.4292,0 0,22.14571 0,22.14564 17.7166,0 17.7165,0 0,-8.85826 0,-8.85828 -4.4292,0 -4.4291,0 0,-4.4291 0,-4.42916 8.8583,0 8.8583,0 0,8.85826 0,8.85828 4.4291,0 4.4291,0 0,-22.14564 0,-22.14571 z m -26.5748,44.29135 -4.4291,0 0,-4.42913 0,-4.42915 4.4291,0 4.4291,0 0,4.42915 0,4.42913 z m -8.8583,-17.71654 -4.4291,0 0,-4.4291 0,-4.42915 4.4291,0 4.4292,0 0,4.42915 0,4.4291 z"
       style="fill:#ff0000;stroke:#ff0000;stroke-opacity:1;stroke-width:0;stroke-miterlimit:4;stroke-dasharray:none" />
    <rect
       transform="matrix(0,1,1,0,0,0)"
       y="407.48032"
       x="-329.52768"
       height="177.16536"
       width="10.629921"
       id="rect4222"
       style="fill:#ff00ff;stroke:#0000ff;stroke-opacity:1;stroke-width:0;stroke-miterlimit:4;stroke-dasharray:none" />
    <rect
       transform="matrix(0,1,1,0,0,0)"
       y="779.52759"
       x="-329.52768"
       height="177.16534"
       width="10.629921"
       id="rect4224"
       style="fill:#ff00ff;stroke:#0000ff;stroke-opacity:1;stroke-width:0;stroke-miterlimit:4;stroke-dasharray:none" />
    <rect
       transform="matrix(0,1,1,0,0,0)"
       style="fill:#ff00ff;stroke:#0000ff;stroke-opacity:1;stroke-width:0;stroke-miterlimit:4;stroke-dasharray:none"
       id="rect4226"
       width="10.629921"
       height="88.582672"
       x="-329.52768"
       y="1116.1417" />
    <rect
       transform="matrix(0,1,1,0,0,0)"
       y="1364.1732"
       x="-329.52768"
       height="124.01576"
       width="10.629921"
       id="rect4228"
       style="fill:#ff00ff;stroke:#0000ff;stroke-opacity:1;stroke-width:0;stroke-miterlimit:4;stroke-dasharray:none" />
    <rect
       transform="matrix(0,1,1,0,0,0)"
       y="35.433071"
       x="-329.52768"
       height="177.1653"
       width="10.629921"
       id="rect4230"
       style="fill:#ff00ff;stroke:#0000ff;stroke-opacity:1;stroke-width:0;stroke-miterlimit:4;stroke-dasharray:none" />
    <path
       sodipodi:nodetypes="ccccc"
       inkscape:connector-curvature="0"
       id="path4684-0"
       d="m 35.433121,-46.063135 0,88.582683 1435.039279,-1e-5 0,-88.582673 z"
       style="fill:#ffff00;stroke:#000000;stroke-width:0;stroke-miterlimit:4;stroke-opacity:1;stroke-dasharray:none" />
    <rect
       transform="matrix(0,1,1,0,0,0)"
       y="407.48041"
       x="31.889654"
       height="177.16536"
       width="10.629921"
       id="rect4686-3"
       style="fill:#ff00ff;stroke:#0000ff;stroke-width:0;stroke-miterlimit:4;stroke-opacity:1;stroke-dasharray:none" />
    <rect
       transform="matrix(0,1,1,0,0,0)"
       y="779.52765"
       x="31.889654"
       height="177.16534"
       width="10.629921"
       id="rect4688-0"
       style="fill:#ff00ff;stroke:#0000ff;stroke-width:0;stroke-miterlimit:4;stroke-opacity:1;stroke-dasharray:none" />
    <rect
       transform="matrix(0,1,1,0,0,0)"
       style="fill:#ff00ff;stroke:#0000ff;stroke-width:0;stroke-miterlimit:4;stroke-opacity:1;stroke-dasharray:none"
       id="rect4690-0"
       width="10.629921"
       height="88.582672"
       x="31.889654"
       y="1116.1416" />
    <rect
       transform="matrix(0,1,1,0,0,0)"
       y="1364.1731"
       x="31.889654"
       height="106.29935"
       width="10.629921"
       id="rect4692-0"
       style="fill:#ff00ff;stroke:#0000ff;stroke-width:0;stroke-miterlimit:4;stroke-opacity:1;stroke-dasharray:none" />
    <rect
       transform="matrix(0,1,1,0,0,0)"
       y="35.433128"
       x="31.889654"
       height="177.1653"
       width="10.629921"
       id="rect4694-8"
       style="fill:#ff00ff;stroke:#0000ff;stroke-width:0;stroke-miterlimit:4;stroke-opacity:1;stroke-dasharray:none" />
    <path
       sodipodi:nodetypes="ccccccccccccccccccccccccccccccccccccccccccccccccccccccccccc"
       inkscape:connector-curvature="0"
       id="path4696-5"
       d="m 332.18507,-28.346585 -4.42908,0 0,4.429163 0,4.4291 -4.42917,0 -4.42912,0 0,-4.4291 0,-4.429163 -4.42915,0 -4.42913,0 0,4.429163 0,4.4291 -4.42912,0 -4.42913,0 0,-4.4291 0,-4.429163 -4.42914,0 -4.42914,0 0,4.429163 0,4.4291 -4.42912,0 -4.42915,0 0,22.1456995 0,22.1456395 17.71655,0 17.71653,0 0,-8.858259 0,-8.8582805 -4.42915,0 -4.42913,0 0,-4.4291 0,-4.42916 8.85828,0 8.85829,0 0,8.85826 0,8.8582805 4.42908,0 4.42916,0 0,-22.1456405 0,-22.1457025 z m -26.57477,44.291343 -4.42913,0 0,-4.42913 0,-4.4291505 4.42913,0 4.42912,0 0,4.4291505 0,4.42913 z m -8.85827,-17.7165405 -4.42914,0 0,-4.4291 0,-4.4291495 4.42914,0 4.42914,0 0,4.4291495 0,4.4291 z"
       style="fill:#ff0000;stroke:#ff0000;stroke-width:0;stroke-miterlimit:4;stroke-opacity:1;stroke-dasharray:none" />
    <path
       style="fill:#ff0000;stroke:#ff0000;stroke-width:0;stroke-miterlimit:4;stroke-opacity:1;stroke-dasharray:none"
       d="m 1058.563,-28.346585 -4.4291,0 0,4.429163 0,4.4291 -4.4292,0 -4.4291,0 0,-4.4291 0,-4.429163 -4.4292,0 -4.4291,0 0,4.429163 0,4.4291 -4.4291,0 -4.4291,0 0,-4.4291 0,-4.429163 -4.4292,0 -4.4291,0 0,4.429163 0,4.4291 -4.4291,0 -4.4292,0 0,22.1456995 0,22.1456395 17.7166,0 17.7165,0 0,-8.858259 0,-8.8582805 -4.4292,0 -4.4291,0 0,-4.4291 0,-4.42916 8.8583,0 8.8583,0 0,8.85826 0,8.8582805 4.4291,0 4.4291,0 0,-22.1456405 0,-22.1457025 z m -26.5748,44.291343 -4.4291,0 0,-4.42913 0,-4.4291505 4.4291,0 4.4291,0 0,4.4291505 0,4.42913 z m -8.8583,-17.7165405 -4.4291,0 0,-4.4291 0,-4.4291495 4.4291,0 4.4292,0 0,4.4291495 0,4.4291 z"
       id="path3224-2"
       inkscape:connector-curvature="0"
       sodipodi:nodetypes="ccccccccccccccccccccccccccccccccccccccccccccccccccccccccccc" />
    <rect
       style="fill:#ff00ff;stroke:#0000ff;stroke-width:0;stroke-miterlimit:4;stroke-opacity:1;stroke-dasharray:none"
       id="rect4173-7"
       width="10.629921"
       height="177.16536"
       x="-46.063133"
       y="407.48041"
       transform="matrix(0,1,1,0,0,0)" />
    <rect
       style="fill:#ff00ff;stroke:#0000ff;stroke-width:0;stroke-miterlimit:4;stroke-opacity:1;stroke-dasharray:none"
       id="rect4175-4"
       width="10.629921"
       height="177.16534"
       x="-46.063133"
       y="779.52765"
       transform="matrix(0,1,1,0,0,0)" />
    <rect
       y="1116.1416"
       x="-46.063133"
       height="88.582672"
       width="10.629921"
       id="rect4177-2"
       style="fill:#ff00ff;stroke:#0000ff;stroke-width:0;stroke-miterlimit:4;stroke-opacity:1;stroke-dasharray:none"
       transform="matrix(0,1,1,0,0,0)" />
    <rect
       style="fill:#ff00ff;stroke:#0000ff;stroke-width:0;stroke-miterlimit:4;stroke-opacity:1;stroke-dasharray:none"
       id="rect4179-1"
       width="10.629921"
       height="106.29935"
       x="-46.063133"
       y="1364.1731"
       transform="matrix(0,1,1,0,0,0)" />
    <rect
       style="fill:#ff00ff;stroke:#0000ff;stroke-width:0;stroke-miterlimit:4;stroke-opacity:1;stroke-dasharray:none"
       id="rect4181-0"
       width="10.629921"
       height="177.1653"
       x="-46.063133"
       y="35.433128"
       transform="matrix(0,1,1,0,0,0)" />
    <path
       id="rect4214-2-7-4"
       d="m 53.14954,361.41721 159.44882,0 c 9.81496,0 17.71654,-7.90157 17.71654,-17.71653 l 0,-88.58268 c 0,-9.81496 -7.90158,-17.71653 -17.71654,-17.71653 l -159.44882,0 c -9.81496,0 -17.71653,7.90157 -17.71653,17.71653 l 0,88.58268 c 0,9.81496 7.90157,17.71653 17.71653,17.71653 z"
       style="fill:#ff0000;stroke:#000000;stroke-width:0;stroke-miterlimit:4;stroke-opacity:1;stroke-dasharray:none"
       inkscape:connector-curvature="0" />
    <path
       inkscape:connector-curvature="0"
       style="fill:#ffd42a;stroke:#00ff00;stroke-width:0;stroke-miterlimit:4;stroke-opacity:1;stroke-dasharray:none"
       d="m 212.59837,343.70068 0,-38.97763 0,-10.62742 0,-38.97763 -159.44881,0 0,38.97763 0,10.62742 0,38.97763 z"
       id="rect4216-5-7-8"
       sodipodi:nodetypes="ccccccccc" />
    <path
       id="rect4214-2-7-4-0"
       d="m 53.14954,485.43296 159.44882,0 c 9.81496,0 17.71654,-7.90157 17.71654,-17.71653 l 0,-88.58268 c 0,-9.81496 -7.90158,-17.71653 -17.71654,-17.71653 l -159.44882,0 c -9.81496,0 -17.71653,7.90157 -17.71653,17.71653 l 0,88.58268 c 0,9.81496 7.90157,17.71653 17.71653,17.71653 z"
       style="fill:#ff0000;stroke:#000000;stroke-width:0;stroke-miterlimit:4;stroke-opacity:1;stroke-dasharray:none"
       inkscape:connector-curvature="0" />
    <path
       inkscape:connector-curvature="0"
       style="fill:#ffd42a;stroke:#00ff00;stroke-width:0;stroke-miterlimit:4;stroke-opacity:1;stroke-dasharray:none"
       d="m 212.59837,467.71643 0,-38.97763 0,-10.62742 0,-38.97763 -159.44881,0 0,38.97763 0,10.62742 0,38.97763 z"
       id="rect4216-5-7-8-5"
       sodipodi:nodetypes="ccccccccc" />
    <path
       id="rect4214-2-7-4-2"
       d="m 248.03145,361.41721 159.44881,0 c 9.81496,0 17.71654,-7.90157 17.71654,-17.71653 l 0,-88.58268 c 0,-9.81496 -7.90158,-17.71653 -17.71654,-17.71653 l -159.44881,0 c -9.81496,0 -17.71653,7.90157 -17.71653,17.71653 l 0,88.58268 c 0,9.81496 7.90157,17.71653 17.71653,17.71653 z"
       style="fill:#ff0000;stroke:#000000;stroke-width:0;stroke-miterlimit:4;stroke-opacity:1;stroke-dasharray:none"
       inkscape:connector-curvature="0" />
    <path
       inkscape:connector-curvature="0"
       style="fill:#ffd42a;stroke:#00ff00;stroke-width:0;stroke-miterlimit:4;stroke-opacity:1;stroke-dasharray:none"
       d="m 407.48027,343.70068 0,-38.97763 0,-10.62742 0,-38.97763 -159.4488,0 0,38.97763 0,10.62742 0,38.97763 z"
       id="rect4216-5-7-8-3"
       sodipodi:nodetypes="ccccccccc" />
    <path
       id="rect4214-2-7-4-0-8"
       d="m 248.03145,485.43296 159.44881,0 c 9.81496,0 17.71654,-7.90157 17.71654,-17.71653 l 0,-88.58268 c 0,-9.81496 -7.90158,-17.71653 -17.71654,-17.71653 l -159.44881,0 c -9.81496,0 -17.71653,7.90157 -17.71653,17.71653 l 0,88.58268 c 0,9.81496 7.90157,17.71653 17.71653,17.71653 z"
       style="fill:#ff0000;stroke:#000000;stroke-width:0;stroke-miterlimit:4;stroke-opacity:1;stroke-dasharray:none"
       inkscape:connector-curvature="0" />
    <path
       inkscape:connector-curvature="0"
       style="fill:#ffd42a;stroke:#00ff00;stroke-width:0;stroke-miterlimit:4;stroke-opacity:1;stroke-dasharray:none"
       d="m 407.48027,467.71643 0,-38.97763 0,-10.62742 0,-38.97763 -159.4488,0 0,38.97763 0,10.62742 0,38.97763 z"
       id="rect4216-5-7-8-5-8"
       sodipodi:nodetypes="ccccccccc" />
    <path
       style="fill:#ffff00;stroke:#000000;stroke-width:0;stroke-miterlimit:4;stroke-opacity:1;stroke-dasharray:none"
       d="m 35.433025,219.68493 0,-159.44882 1434.596575,-10e-6 18.1594,159.44883 z"
       id="rect3024-7-5"
       inkscape:connector-curvature="0"
       sodipodi:nodetypes="ccccc" />
    <path
       sodipodi:type="arc"
       style="fill:#00ff00;stroke:#00ff00;stroke-width:0;stroke-miterlimit:4;stroke-opacity:1;stroke-dasharray:none"
       id="path3812-2"
       sodipodi:cx="363.18896"
       sodipodi:cy="398.62198"
       sodipodi:rx="44.29134"
       sodipodi:ry="44.29134"
       d="m 407.4803,398.62198 a 44.29134,44.29134 0 1 1 -88.58268,0 44.29134,44.29134 0 1 1 88.58268,0 z"
       transform="matrix(0,-1,1,0,-265.74796,503.14949)" />
    <path
       transform="matrix(0,-1,1,0,487.20479,503.14949)"
       d="m 407.4803,398.62198 a 44.29134,44.29134 0 1 1 -88.58268,0 44.29134,44.29134 0 1 1 88.58268,0 z"
       sodipodi:ry="44.29134"
       sodipodi:rx="44.29134"
       sodipodi:cy="398.62198"
       sodipodi:cx="363.18896"
       id="path4056-5"
       style="fill:#00ff00;stroke:#00ff00;stroke-width:0;stroke-miterlimit:4;stroke-opacity:1;stroke-dasharray:none"
       sodipodi:type="arc" />
    <rect
       transform="matrix(0,-1,-1,0,0,0)"
       y="-779.5274"
       x="-70.866028"
       height="194.88193"
       width="10.629921"
       id="rect4076-7"
       style="fill:#ff00ff;stroke:#0000ff;stroke-width:0;stroke-miterlimit:4;stroke-opacity:1;stroke-dasharray:none" />
    <rect
       y="-1116.1414"
       x="-70.866028"
       height="159.44882"
       width="10.629921"
       id="rect4078-0"
       style="fill:#ff00ff;stroke:#0000ff;stroke-width:0;stroke-miterlimit:4;stroke-opacity:1;stroke-dasharray:none"
       transform="matrix(0,-1,-1,0,0,0)" />
    <rect
       style="fill:#ff00ff;stroke:#0000ff;stroke-width:0;stroke-miterlimit:4;stroke-opacity:1;stroke-dasharray:none"
       id="rect4080-5"
       width="10.629921"
       height="194.88185"
       x="-70.866028"
       y="-407.48032"
       transform="matrix(0,-1,-1,0,0,0)" />
    <rect
       transform="matrix(0,-1,-1,0,0,0)"
       style="fill:#ff00ff;stroke:#0000ff;stroke-width:0;stroke-miterlimit:4;stroke-opacity:1;stroke-dasharray:none"
       id="rect4082-1"
       width="10.629921"
       height="159.44882"
       x="-70.866028"
       y="-1364.1729" />
    <rect
       style="fill:#ff00ff;stroke:#0000ff;stroke-width:0;stroke-miterlimit:4;stroke-opacity:1;stroke-dasharray:none"
       id="rect3150-9"
       width="10.629921"
       height="194.88193"
       x="-219.68495"
       y="-779.5274"
       transform="matrix(0,-1,-1,0,0,0)" />
    <rect
       transform="matrix(0,-1,-1,0,0,0)"
       style="fill:#ff00ff;stroke:#0000ff;stroke-width:0;stroke-miterlimit:4;stroke-opacity:1;stroke-dasharray:none"
       id="rect3152-7"
       width="10.629921"
       height="159.44882"
       x="-219.68495"
       y="-1116.1414" />
    <rect
       transform="matrix(0,-1,-1,0,0,0)"
       y="-407.48032"
       x="-219.68495"
       height="194.88185"
       width="10.629921"
       id="rect3154-5"
       style="fill:#ff00ff;stroke:#0000ff;stroke-width:0;stroke-miterlimit:4;stroke-opacity:1;stroke-dasharray:none" />
    <rect
       y="-1364.1729"
       x="-219.68495"
       height="159.44882"
       width="10.629921"
       id="rect3156-1"
       style="fill:#ff00ff;stroke:#0000ff;stroke-width:0;stroke-miterlimit:4;stroke-opacity:1;stroke-dasharray:none"
       transform="matrix(0,-1,-1,0,0,0)" />
  </g>
</svg>
