<?xml version="1.0" encoding="UTF-8" standalone="no"?>
<!-- Created with Inkscape (http://www.inkscape.org/) -->

<svg
   xmlns:dc="http://purl.org/dc/elements/1.1/"
   xmlns:cc="http://creativecommons.org/ns#"
   xmlns:rdf="http://www.w3.org/1999/02/22-rdf-syntax-ns#"
   xmlns:svg="http://www.w3.org/2000/svg"
   xmlns="http://www.w3.org/2000/svg"
   xmlns:sodipodi="http://sodipodi.sourceforge.net/DTD/sodipodi-0.dtd"
   xmlns:inkscape="http://www.inkscape.org/namespaces/inkscape"
   width="2303.1497"
   height="1417.3228"
   id="svg2"
   version="1.1"
   inkscape:version="0.48.4 r9939"
   sodipodi:docname="loom4.svg">
  <defs
     id="defs4" />
  <sodipodi:namedview
     id="base"
     pagecolor="#ffffff"
     bordercolor="#666666"
     borderopacity="1.0"
     inkscape:pageopacity="0.0"
     inkscape:pageshadow="2"
     inkscape:zoom="0.5"
     inkscape:cx="596.00569"
     inkscape:cy="549.5692"
     inkscape:document-units="mm"
     inkscape:current-layer="layer1"
     showgrid="true"
     units="mm"
     inkscape:window-width="1920"
     inkscape:window-height="1027"
     inkscape:window-x="0"
     inkscape:window-y="0"
     inkscape:window-maximized="1"
     inkscape:snap-grids="true"
     gridtolerance="10000"
     inkscape:snap-object-midpoints="false"
     inkscape:object-paths="true"
     inkscape:object-nodes="false"
     inkscape:snap-intersection-paths="true"
     inkscape:snap-center="false"
     inkscape:snap-nodes="true"
     inkscape:snap-bbox="true"
     showguides="false"
     inkscape:guide-bbox="true"
     inkscape:snap-bbox-midpoints="true"
     inkscape:snap-global="true"
     inkscape:bbox-paths="true">
    <inkscape:grid
       type="xygrid"
       id="grid2987"
       empspacing="5"
       visible="true"
       enabled="true"
       snapvisiblegridlinesonly="true"
       units="mm"
       spacingx="1mm"
       spacingy="1mm"
       dotted="true" />
  </sodipodi:namedview>
  <metadata
     id="metadata7">
    <rdf:RDF>
      <cc:Work
         rdf:about="">
        <dc:format>image/svg+xml</dc:format>
        <dc:type
           rdf:resource="http://purl.org/dc/dcmitype/StillImage" />
        <dc:title />
      </cc:Work>
    </rdf:RDF>
  </metadata>
  <g
     inkscape:label="Layer 1"
     inkscape:groupmode="layer"
     id="layer1"
     transform="translate(0,364.96066)">
    <path
       style="fill:none;stroke:#00ff00;stroke-width:0;stroke-miterlimit:4;stroke-opacity:1;stroke-dasharray:none"
       d="m 1222.441,317.14149 0,79.70879 0,0 -88.5827,0 0,-159.44882 88.5827,0 0,77.959"
       id="path4068"
       inkscape:connector-curvature="0" />
    <path
       id="rect4006-2-7"
       style="fill:none;stroke:#000000;stroke-width:0;stroke-miterlimit:4;stroke-opacity:1;stroke-dasharray:none"
       d="m 1346.4567,414.56683 -88.5827,0 c -9.8149,0 -17.7165,-7.90157 -17.7165,-17.71653 l 0,-159.44883 c 0,-9.81496 7.9016,-17.71654 17.7165,-17.71654 l 88.5827,0 c 9.815,0 17.7166,7.90158 17.7166,17.71654 l 0,159.44883 c 0,9.81496 -7.9016,17.71653 -17.7166,17.71653 z m -124.0157,0 -88.5827,0 c -9.815,0 -17.7165,-7.90157 -17.7165,-17.71653 l 0,-159.44883 c 0,-9.81496 7.9015,-17.71654 17.7165,-17.71654 l 88.5827,0 c 9.8149,0 17.7165,7.90158 17.7165,17.71654 l 0,159.44883 c 0,9.81496 -7.9016,17.71653 -17.7165,17.71653 z m 124.0157,194.8819 -88.5827,0 c -9.8149,0 -17.7165,-7.90158 -17.7165,-17.71654 l 0,-159.44882 c 0,-9.81496 7.9016,-17.71654 17.7165,-17.71654 l 88.5827,0 c 9.815,0 17.7166,7.90158 17.7166,17.71654 l 0,159.44882 c 0,9.81496 -7.9016,17.71654 -17.7166,17.71654 z m -124.0157,-10e-6 -88.5827,0 c -9.815,0 -17.7165,-7.90157 -17.7165,-17.71653 l 0,-159.44883 c 0,-9.81496 7.9015,-17.71653 17.7165,-17.71653 l 88.5827,0 c 9.8149,0 17.7165,7.90157 17.7165,17.71653 l 0,159.44883 c 0,9.81496 -7.9016,17.71653 -17.7165,17.71653 z"
       inkscape:connector-curvature="0" />
    <path
       inkscape:connector-curvature="0"
       style="fill:none;stroke:#00ff00;stroke-width:0;stroke-miterlimit:4;stroke-opacity:1;stroke-dasharray:none"
       d="m 1346.4567,317.14149 0,79.70879 0,0 -88.5827,0 0,-159.44882 88.5827,0 0,77.959"
       id="path4068-2" />
    <path
       inkscape:connector-curvature="0"
       style="fill:none;stroke:#00ff00;stroke-width:0;stroke-miterlimit:4;stroke-opacity:1;stroke-dasharray:none"
       d="m 1346.4567,512.0234 0,79.70879 0,0 -88.5827,0 0,-159.44882 88.5827,0 0,77.959"
       id="path4068-0" />
    <path
       inkscape:connector-curvature="0"
       style="fill:none;stroke:#00ff00;stroke-width:0;stroke-miterlimit:4;stroke-opacity:1;stroke-dasharray:none"
       d="m 1222.441,512.0234 0,79.70879 0,0 -88.5827,0 0,-159.44882 88.5827,0 0,77.959"
       id="path4068-7" />
    <path
       inkscape:connector-curvature="0"
       style="fill:none;stroke:#000000;stroke-width:0;stroke-miterlimit:4;stroke-opacity:1;stroke-dasharray:none"
       d="m 556.30856,290.55107 0,10.625 -24.8125,0 0,46.0625 24.8125,0 0,10.625 56.68749,0 0,-10.625 56.6875,0 0,10.625 56.68755,0 0,-10.625 56.71874,0 0,10.625 56.6875,0 0,-10.625 56.6875,0 0,10.625 56.6875,0 0,-10.625 56.68746,0 0,-46.0625 -56.68746,0 0,-10.625 -56.6875,0 0,10.625 -56.6875,0 0,-10.625 -56.6875,0 0,10.625 -56.71874,0 0,-10.625 -56.68755,0 0,10.625 -56.6875,0 0,-10.625 -56.68749,0 z"
       id="rect4171-7-2-2" />
    <path
       inkscape:connector-curvature="0"
       style="fill:none;stroke:#000000;stroke-width:0;stroke-miterlimit:4;stroke-opacity:1;stroke-dasharray:none"
       d="m 556.30856,219.68493 0,10.625 -24.8125,0 0,46.0625 24.8125,0 0,10.625 17.71875,0 0,-10.625 38.96875,0 0,10.625 56.6875,0 0,-10.625 56.68755,0 0,10.625 56.71873,0 0,-10.625 56.6875,0 0,10.625 56.6875,0 0,-10.625 56.6875,0 0,10.625 56.68746,0 0,-10.625 0,-46.0625 0,-10.625 -56.68746,0 0,10.625 -56.6875,0 0,-10.625 -56.6875,0 0,10.625 -56.6875,0 0,-10.625 -56.71873,0 0,10.625 -56.68755,0 0,-10.625 -56.6875,0 0,10.625 -38.96875,0 0,-10.625 -17.71875,0 z"
       id="rect4470-0-7" />
    <path
       sodipodi:nodetypes="ccccccccccccccccccccccccccccccccccccc"
       style="fill:#ffff00;stroke:#000000;stroke-width:0;stroke-miterlimit:4;stroke-opacity:1;stroke-dasharray:none"
       d="m 194.87352,-170.07883 0,10.62367 -177.156981,0.006 0,67.30409 177.156981,-0.0063 0,10.65492 194.87581,0 0,-10.65492 177.18822,0 0,10.65492 194.87587,0 0,-10.65492 177.15702,0 0,10.65492 159.46926,0 0,-10.65492 88.563,0 0,10.65492 159.4693,0 0,-10.65492 60.2209,0.025 0,-67.32284 -60.2209,-0.006 0,-10.62367 -159.4693,0 0,10.62367 -88.563,0 0,-10.62367 -159.46926,0 0,10.62367 -177.15702,0 0,-10.62367 -194.87587,0 0,10.62367 -177.18822,0 0,-10.62367 z"
       id="path4684-6"
       inkscape:connector-curvature="0" />
    <path
       sodipodi:nodetypes="ccccccccccccccccccccccccccccccccccccccccccccccccccccccccccc"
       inkscape:connector-curvature="0"
       id="path4696-7"
       d="m 279.03562,184.25188 -4.4291,0 0,-4.42916 0,-4.4291 -4.4292,0 -4.42914,0 0,4.4291 0,4.42916 -4.42917,0 -4.42914,0 0,-4.42916 0,-4.4291 -4.42914,0 -4.42915,0 0,4.4291 0,4.42916 -4.42916,0 -4.42916,0 0,-4.42916 0,-4.4291 -4.42913,0 -4.42917,0 0,-22.14571 0,-22.14564 17.71662,0 17.7166,0 0,8.85826 0,8.85828 -4.42917,0 -4.42914,0 0,4.4291 0,4.42916 8.85831,0 8.85834,0 0,-8.85826 0,-8.85828 4.4291,0 4.42918,0 0,22.14564 0,22.14571 z m -26.57489,-44.29135 -4.42915,0 0,4.42913 0,4.42915 4.42915,0 4.42914,0 0,-4.42915 0,-4.42913 z m -8.85831,17.71654 -4.42916,0 0,4.4291 0,4.42915 4.42916,0 4.42916,0 0,-4.42915 0,-4.4291 z"
       style="fill:#ff0000;stroke:#ff0000;stroke-width:0;stroke-miterlimit:4;stroke-opacity:1;stroke-dasharray:none" />
    <path
       style="fill:#ff0000;stroke:#ff0000;stroke-width:0;stroke-miterlimit:4;stroke-opacity:1;stroke-dasharray:none"
       d="m 1023.1301,184.25188 -4.4292,0 0,-4.42916 0,-4.4291 -4.4292,0 -4.4291,0 0,4.4291 0,4.42916 -4.4292,0 -4.4291,0 0,-4.42916 0,-4.4291 -4.42906,0 -4.4292,0 0,4.4291 0,4.42916 -4.4292,0 -4.4291,0 0,-4.42916 0,-4.4291 -4.4291,0 -4.4292,0 0,-22.14571 0,-22.14564 17.7166,0 17.71656,0 0,8.85826 0,8.85828 -4.4292,0 -4.4291,0 0,4.4291 0,4.42916 8.8583,0 8.8583,0 0,-8.85826 0,-8.85828 4.4292,0 4.4291,0 0,22.14564 0,22.14571 z m -26.57486,-44.29135 -4.4292,0 0,4.42913 0,4.42915 4.4292,0 4.42906,0 0,-4.42915 0,-4.42913 z m -8.8584,17.71654 -4.4291,0 0,4.4291 0,4.42915 4.4291,0 4.4292,0 0,-4.42915 0,-4.4291 z"
       id="path3224-9"
       inkscape:connector-curvature="0"
       sodipodi:nodetypes="ccccccccccccccccccccccccccccccccccccccccccccccccccccccccccc" />
    <path
       style="fill:none;stroke:#000000;stroke-width:0;stroke-miterlimit:4;stroke-opacity:1;stroke-dasharray:none"
       d="m 17.766135,466.78827 -0.0496,138.19734 964.056105,0.3666 24.25266,-28.8063 3.5222,-4.1835 7.8897,-9.3709 -7.889,-6.64193 0,-0.53217 88.7387,-105.39972 -18.9811,-15.98062 -21.6764,25.74628 -1.1271,1.33872 -0.048,-0.0403 c -15.9345,17.49912 -42.9552,19.43296 -61.21886,4.05624 -18.2638,-15.37675 -20.9849,-42.35102 -6.4578,-61.035 l -0.048,-0.0403 1.1271,-1.33871 21.67646,-25.74629 -18.95716,-15.9605 -89.0003,105.71054 -8.128,-6.84309 -5.7561,6.837 -871.924585,-0.33348 z"
       id="rect3132"
       inkscape:connector-curvature="0" />
    <path
       inkscape:connector-curvature="0"
       style="fill:#ffff00;stroke:#000000;stroke-width:0;stroke-miterlimit:4;stroke-opacity:1;stroke-dasharray:none"
       d="m 194.87353,113.38573 0,10.62367 -177.15699,0.006 0,67.30409 177.15699,-0.006 0,10.65492 194.8758,0 0,-10.65492 131.11681,0 0,10.65492 301.1811,-1e-5 0,-10.65492 116.9231,1e-5 0,10.65492 159.46936,0 0,-10.65492 88.563,0 0,10.65492 159.4693,0 0,-10.65492 95.6541,2e-5 0,-67.30409 -95.6541,-2e-5 0,-10.62367 -159.4693,0 0,10.62367 -88.563,0 0,-10.62367 -159.46936,0 0,10.62367 -116.9231,0.006 0,-10.62367 -301.1811,-0.006 0,10.62367 -131.1168,0 0,-10.62367 z"
       id="path4684-7"
       sodipodi:nodetypes="ccccccccccccccccccccccccccccccccccccc" />
    <g
       style="stroke:#00ff00;stroke-width:0;stroke-miterlimit:4;stroke-opacity:1;stroke-dasharray:none"
       id="g3317"
       transform="translate(-240.94491,-120.47242)">
      <rect
         transform="matrix(0,-1,1,0,0,0)"
         y="836.22046"
         x="-311.81094"
         height="38.976372"
         width="10.629927"
         id="rect4102-8"
         style="fill:none;stroke:#00ff00;stroke-width:0;stroke-miterlimit:4;stroke-opacity:1;stroke-dasharray:none" />
      <rect
         transform="matrix(0,-1,1,0,0,0)"
         y="836.22046"
         x="-255.118"
         height="38.976379"
         width="10.629921"
         id="rect4104-1"
         style="fill:none;stroke:#00ff00;stroke-width:0;stroke-miterlimit:4;stroke-opacity:1;stroke-dasharray:none" />
      <rect
         transform="matrix(0,-1,1,0,0,0)"
         y="892.91339"
         x="-311.81094"
         height="38.976379"
         width="10.629921"
         id="rect4104-7-3"
         style="fill:none;stroke:#00ff00;stroke-width:0;stroke-miterlimit:4;stroke-opacity:1;stroke-dasharray:none" />
      <rect
         transform="matrix(0,-1,1,0,0,0)"
         y="892.91333"
         x="-255.118"
         height="38.976379"
         width="10.629921"
         id="rect4104-3-6"
         style="fill:none;stroke:#00ff00;stroke-width:0;stroke-miterlimit:4;stroke-opacity:1;stroke-dasharray:none" />
      <rect
         transform="matrix(0,-1,1,0,0,0)"
         y="949.60632"
         x="-311.81094"
         height="38.976379"
         width="10.629921"
         id="rect4104-7-1-6"
         style="fill:none;stroke:#00ff00;stroke-width:0;stroke-miterlimit:4;stroke-opacity:1;stroke-dasharray:none" />
      <rect
         transform="matrix(0,-1,1,0,0,0)"
         y="949.60632"
         x="-255.118"
         height="38.976379"
         width="10.629921"
         id="rect4104-3-4-6"
         style="fill:none;stroke:#00ff00;stroke-width:0;stroke-miterlimit:4;stroke-opacity:1;stroke-dasharray:none" />
      <rect
         transform="matrix(0,-1,1,0,0,0)"
         y="1006.2992"
         x="-311.81097"
         height="38.976379"
         width="10.629921"
         id="rect4104-7-1-6-2"
         style="fill:none;stroke:#00ff00;stroke-width:0;stroke-miterlimit:4;stroke-opacity:1;stroke-dasharray:none" />
      <rect
         transform="matrix(0,-1,1,0,0,0)"
         y="1006.2992"
         x="-255.118"
         height="38.976379"
         width="10.629921"
         id="rect4104-3-4-6-6"
         style="fill:none;stroke:#00ff00;stroke-width:0;stroke-miterlimit:4;stroke-opacity:1;stroke-dasharray:none" />
      <rect
         style="fill:none;stroke:#00ff00;stroke-width:0;stroke-miterlimit:4;stroke-opacity:1;stroke-dasharray:none"
         id="rect3192"
         width="10.629927"
         height="38.976372"
         x="-311.81094"
         y="779.52759"
         transform="matrix(0,-1,1,0,0,0)" />
      <rect
         style="fill:none;stroke:#00ff00;stroke-width:0;stroke-miterlimit:4;stroke-opacity:1;stroke-dasharray:none"
         id="rect3194"
         width="10.629921"
         height="38.976379"
         x="-255.118"
         y="779.52759"
         transform="matrix(0,-1,1,0,0,0)" />
    </g>
    <path
       style="fill:#ffff00;stroke:#000000;stroke-width:0;stroke-miterlimit:4;stroke-opacity:1;stroke-dasharray:none"
       d="m 17.71654,95.66922 0,-159.448821 177.15698,10e-7 0,10.62367 194.87581,0 0,-10.62367 177.17981,-2e-5 0,10.62367 194.88189,0 0,-10.62367 177.15933,2e-5 0,10.62367 159.46934,0 0,-10.62367 88.563,0 0,10.62367 159.4693,0 0,-10.62367 60.2164,-2e-5 35.4377,159.44882 -95.6541,2e-5 0,-10.65492 -159.4693,0 0,10.65492 -88.563,0 0,-10.65492 -159.46934,0 0,10.65492 -116.923,0 0,-10.65492 -301.18114,0 0,10.65492 -131.11689,0 0,-10.65492 -194.87581,0 0,10.65492 z"
       id="rect3024-7-3"
       inkscape:connector-curvature="0"
       sodipodi:nodetypes="ccccccccccccccccccccccccccccccccccccc" />
    <path
       sodipodi:type="arc"
       style="fill:none;stroke:#00ff00;stroke-width:0;stroke-miterlimit:4;stroke-opacity:1;stroke-dasharray:none"
       id="path3081-6-5"
       sodipodi:cx="310.03937"
       sodipodi:cy="-44.29142"
       sodipodi:rx="44.29134"
       sodipodi:ry="44.29134"
       d="m 354.33071,-44.29142 a 44.29134,44.29134 0 1 1 -0.0249,-1.484895"
       transform="matrix(0,0.98884579,0.98884575,0,166.04148,-290.63633)"
       sodipodi:start="0"
       sodipodi:end="6.2496534"
       sodipodi:open="true" />
    <path
       sodipodi:type="arc"
       style="fill:none;stroke:#00ff00;stroke-width:0;stroke-miterlimit:4;stroke-opacity:1;stroke-dasharray:none"
       id="path3081-5-2-4"
       sodipodi:cx="310.03937"
       sodipodi:cy="-44.29142"
       sodipodi:rx="44.29134"
       sodipodi:ry="44.29134"
       d="m 354.33071,-44.29142 a 44.29134,44.29134 0 1 1 -0.0249,-1.484895"
       transform="matrix(0,0.98884579,0.98884575,0,892.41946,-290.63633)"
       sodipodi:start="0"
       sodipodi:end="6.2496534"
       sodipodi:open="true" />
    <path
       sodipodi:nodetypes="ccccccccccccccccccccccccccccccccccccc"
       inkscape:connector-curvature="0"
       id="path3252"
       d="m 17.71654,-347.24421 0,159.44882 177.15698,0 0,-10.62367 194.87581,0 0,10.62367 177.17981,2e-5 0,-10.62367 194.88189,0 0,10.62367 177.15933,-2e-5 0,-10.62367 159.46934,0 0,10.62367 88.563,0 0,-10.62367 159.4693,0 0,10.62367 60.2164,2e-5 35.4377,-159.44882 -95.6541,-2e-5 0,10.65492 -159.4693,0 0,-10.65492 -88.563,0 0,10.65492 -159.46934,0 0,-10.65492 -116.923,0 0,10.65492 -301.18114,0 0,-10.65492 -131.11689,0 0,10.65492 -194.87581,0 0,-10.65492 z"
       style="fill:#ffff00;stroke:#000000;stroke-width:0;stroke-miterlimit:4;stroke-opacity:1;stroke-dasharray:none" />
    <path
       sodipodi:open="true"
       sodipodi:end="6.2496534"
       sodipodi:start="0"
       transform="matrix(0,-0.98884579,0.98884575,0,166.04148,39.06134)"
       d="m 354.33071,-44.29142 a 44.29134,44.29134 0 1 1 -0.0249,-1.484895"
       sodipodi:ry="44.29134"
       sodipodi:rx="44.29134"
       sodipodi:cy="-44.29142"
       sodipodi:cx="310.03937"
       id="path3254"
       style="fill:none;stroke:#00ff00;stroke-width:0;stroke-miterlimit:4;stroke-opacity:1;stroke-dasharray:none"
       sodipodi:type="arc" />
    <path
       sodipodi:open="true"
       sodipodi:end="6.2496534"
       sodipodi:start="0"
       transform="matrix(0,-0.98884579,0.98884575,0,892.41946,39.06134)"
       d="m 354.33071,-44.29142 a 44.29134,44.29134 0 1 1 -0.0249,-1.484895"
       sodipodi:ry="44.29134"
       sodipodi:rx="44.29134"
       sodipodi:cy="-44.29142"
       sodipodi:cx="310.03937"
       id="path3256"
       style="fill:none;stroke:#00ff00;stroke-width:0;stroke-miterlimit:4;stroke-opacity:1;stroke-dasharray:none"
       sodipodi:type="arc" />
    <path
       inkscape:connector-curvature="0"
       style="fill:none;stroke:#000000;stroke-width:0;stroke-miterlimit:4;stroke-opacity:1;stroke-dasharray:none"
       d="m 17.716535,219.68492 0,38.99039 14.156892,0 0,-17.71438 10.62552,0 0,35.42876 -24.782412,0 0,38.95914 14.156892,0 0,-17.71438 10.62552,0 0,24.80638 24.813713,0 0,-10.65362 56.69028,0 0,10.65362 56.69027,0 0,-10.65362 56.69037,0 0,10.65362 56.72147,0 0,-10.65362 56.69028,0 0,10.65362 56.69027,0 0,-10.65362 56.69027,0 0,10.65362 56.69027,0 0,-35.43307 -56.69291,0 0,-10.61807 56.69291,-0.0118 0,-56.69292 -17.71957,0 0,1.81206 c 0,14.67324 -11.88588,26.55595 -26.56389,26.55595 -14.67732,0 -26.5639,-11.88271 -26.5637,-26.55595 l 0,-1.81206 -17.75087,0 0,1.81206 c 0,14.67324 -11.88588,26.55595 -26.5639,26.55595 -14.67732,0 -26.5639,-11.88271 -26.5637,-26.55595 l 0,-1.81206 -17.75087,0 0,1.81206 c -7e-4,14.67324 -11.88588,26.55595 -26.5639,26.55595 -14.67731,0 -26.56389,-11.88271 -26.56369,-26.55595 l 0,-1.81206 -17.75087,0 0,1.81206 c -8e-4,14.67324 -11.88588,26.55595 -26.5639,26.55595 -14.67732,0 -26.5639,-11.88271 -26.5637,-26.55595 l 0,-1.81206 -17.71967,0 0,1.81206 c 0,14.67324 -11.88618,26.55595 -26.56379,26.55595 -14.67752,0 -26.5638,-11.88271 -26.5638,-26.55595 l 0,-1.81206 z"
       id="rect4168-7-5"
       sodipodi:nodetypes="cccccccccccccccccccccccccccccccccccsscccssccccsccccscccssscc" />
    <rect
       style="fill:none;stroke:#00ff00;stroke-width:0;stroke-miterlimit:4;stroke-opacity:1;stroke-dasharray:none"
       id="rect4171-7-1-3"
       width="56.692913"
       height="10.629921"
       x="124.01575"
       y="-287.00775"
       transform="scale(1,-1)" />
    <rect
       style="fill:none;stroke:#00ff00;stroke-width:0;stroke-miterlimit:4;stroke-opacity:1;stroke-dasharray:none"
       id="rect4171-7-6-6-5"
       width="17.717381"
       height="10.629921"
       x="67.322838"
       y="-287.00775"
       transform="scale(1,-1)" />
    <rect
       style="fill:none;stroke:#00ff00;stroke-width:0;stroke-miterlimit:4;stroke-opacity:1;stroke-dasharray:none"
       id="rect4171-7-1-3-2"
       width="56.692913"
       height="10.629921"
       x="237.40158"
       y="-287.00775"
       transform="scale(1,-1)" />
    <rect
       style="fill:none;stroke:#00ff00;stroke-width:0;stroke-miterlimit:4;stroke-opacity:1;stroke-dasharray:none"
       id="rect4171-7-1-3-9"
       width="56.692913"
       height="10.629921"
       x="350.78741"
       y="-287.00775"
       transform="scale(1,-1)" />
    <path
       sodipodi:nodetypes="cccccccccccccccccccccccccccccccccccsscccssccccsccccscccssscc"
       id="path4201"
       d="m 17.716535,325.98414 0,38.99039 14.156892,0 0,-17.71438 10.62552,0 0,35.42876 -24.782412,0 0,38.95914 14.156892,0 0,-17.71438 10.62552,0 0,24.80638 24.813713,0 0,-10.65362 56.69028,0 0,10.65362 56.69027,0 0,-10.65362 56.69037,0 0,10.65362 56.72147,0 0,-10.65362 56.69028,0 0,10.65362 56.69027,0 0,-10.65362 56.69027,0 0,10.65362 56.69027,0 0,-35.43307 -56.69291,0 0,-10.61807 56.69291,-0.0118 0,-56.69292 -17.71957,0 0,1.81206 c 0,14.67324 -11.88588,26.55595 -26.56389,26.55595 -14.67732,0 -26.5639,-11.88271 -26.5637,-26.55595 l 0,-1.81206 -17.75087,0 0,1.81206 c 0,14.67324 -11.88588,26.55595 -26.5639,26.55595 -14.67732,0 -26.5639,-11.88271 -26.5637,-26.55595 l 0,-1.81206 -17.75087,0 0,1.81206 c -7e-4,14.67324 -11.88588,26.55595 -26.5639,26.55595 -14.67731,0 -26.56389,-11.88271 -26.56369,-26.55595 l 0,-1.81206 -17.75087,0 0,1.81206 c -8e-4,14.67324 -11.88588,26.55595 -26.5639,26.55595 -14.67732,0 -26.5639,-11.88271 -26.5637,-26.55595 l 0,-1.81206 -17.71967,0 0,1.81206 c 0,14.67324 -11.88618,26.55595 -26.56379,26.55595 -14.67752,0 -26.5638,-11.88271 -26.5638,-26.55595 l 0,-1.81206 z"
       style="fill:none;stroke:#000000;stroke-width:0;stroke-miterlimit:4;stroke-opacity:1;stroke-dasharray:none"
       inkscape:connector-curvature="0" />
    <rect
       transform="scale(1,-1)"
       y="-393.30698"
       x="124.01575"
       height="10.629921"
       width="56.692913"
       id="rect4203"
       style="fill:none;stroke:#00ff00;stroke-width:0;stroke-miterlimit:4;stroke-opacity:1;stroke-dasharray:none" />
    <rect
       transform="scale(1,-1)"
       y="-393.30698"
       x="67.322838"
       height="10.629921"
       width="17.717381"
       id="rect4205"
       style="fill:none;stroke:#00ff00;stroke-width:0;stroke-miterlimit:4;stroke-opacity:1;stroke-dasharray:none" />
    <rect
       transform="scale(1,-1)"
       y="-393.30698"
       x="237.40158"
       height="10.629921"
       width="56.692913"
       id="rect4207"
       style="fill:none;stroke:#00ff00;stroke-width:0;stroke-miterlimit:4;stroke-opacity:1;stroke-dasharray:none" />
    <rect
       transform="scale(1,-1)"
       y="-393.30698"
       x="350.78741"
       height="10.629921"
       width="56.692913"
       id="rect4209"
       style="fill:none;stroke:#00ff00;stroke-width:0;stroke-miterlimit:4;stroke-opacity:1;stroke-dasharray:none" />
  </g>
</svg>
