  0
SECTION
  2
HEADER
  9
$ACADVER
  1
AC1014
  9
$HANDSEED
  5
FFFF
  9
$MEASUREMENT
 70
     1
  0
ENDSEC
  0
SECTION
  2
TABLES
  0
TABLE
  2
VPORT
  5
8
330
0
100
AcDbSymbolTable
 70
     4
  0
VPORT
  5
2E
330
8
100
AcDbSymbolTableRecord
100
AcDbViewportTableRecord
  2
*ACTIVE
 70
     0
 10
0.0
 20
0.0
 11
1.0
 21
1.0
 12
210.0
 22
148.5
 13
0.0
 23
0.0
 14
10.0
 24
10.0
 15
10.0
 25
10.0
 16
0.0
 26
0.0
 36
1.0
 17
0.0
 27
0.0
 37
0.0
 40
341.0
 41
1.24
 42
50.0
 43
0.0
 44
0.0
 50
0.0
 51
0.0
 71
     0
 72
   100
 73
     1
 74
     3
 75
     0
 76
     0
 77
     0
 78
     0
  0
ENDTAB
  0
TABLE
  2
LTYPE
  5
5
330
0
100
AcDbSymbolTable
 70
     1
  0
LTYPE
  5
14
330
5
100
AcDbSymbolTableRecord
100
AcDbLinetypeTableRecord
  2
BYBLOCK
 70
     0
  3

 72
    65
 73
     0
 40
0.0
  0
LTYPE
  5
15
330
5
100
AcDbSymbolTableRecord
100
AcDbLinetypeTableRecord
  2
BYLAYER
 70
     0
  3

 72
    65
 73
     0
 40
0.0
  0
LTYPE
  5
16
330
5
100
AcDbSymbolTableRecord
100
AcDbLinetypeTableRecord
  2
CONTINUOUS
 70
     0
  3
Solid line
 72
    65
 73
     0
 40
0.0
  0
ENDTAB
  0
TABLE
  2
LAYER
  5
2
100
AcDbSymbolTable
 70
2
  0
LAYER
  5
50
100
AcDbSymbolTableRecord
100
AcDbLayerTableRecord
  2
0
 70
0
  6
CONTINUOUS
  0
LAYER
  5
51
100
AcDbSymbolTableRecord
100
AcDbLayerTableRecord
  2
Layer_1
 70
0
  6
CONTINUOUS
  0
ENDTAB
  0
TABLE
  2
STYLE
  5
3
330
0
100
AcDbSymbolTable
 70
     1
  0
STYLE
  5
11
330
3
100
AcDbSymbolTableRecord
100
AcDbTextStyleTableRecord
  2
STANDARD
 70
     0
 40
0.0
 41
1.0
 50
0.0
 71
     0
 42
2.5
  3
txt
  4

  0
ENDTAB
  0
TABLE
  2
VIEW
  5
6
330
0
100
AcDbSymbolTable
 70
     0
  0
ENDTAB
  0
TABLE
  2
UCS
  5
7
330
0
100
AcDbSymbolTable
 70
     0
  0
ENDTAB
  0
TABLE
  2
APPID
  5
9
330
0
100
AcDbSymbolTable
 70
     2
  0
APPID
  5
12
330
9
100
AcDbSymbolTableRecord
100
AcDbRegAppTableRecord
  2
ACAD
 70
     0
  0
ENDTAB
  0
TABLE
  2
DIMSTYLE
  5
A
330
0
100
AcDbSymbolTable
 70
     1
  0
DIMSTYLE
105
27
330
A
100
AcDbSymbolTableRecord
100
AcDbDimStyleTableRecord
  2
ISO-25
 70
     0
  3

  4

  5

  6

  7

 40
1.0
 41
2.5
 42
0.625
 43
3.75
 44
1.25
 45
0.0
 46
0.0
 47
0.0
 48
0.0
140
2.5
141
2.5
142
0.0
143
0.03937007874016
144
1.0
145
0.0
146
1.0
147
0.625
 71
     0
 72
     0
 73
     0
 74
     0
 75
     0
 76
     0
 77
     1
 78
     8
170
     0
171
     3
172
     1
173
     0
174
     0
175
     0
176
     0
177
     0
178
     0
270
     2
271
     2
272
     2
273
     2
274
     3
340
11
275
     0
280
     0
281
     0
282
     0
283
     0
284
     8
285
     0
286
     0
287
     3
288
     0
  0
ENDTAB
  0
TABLE
  2
BLOCK_RECORD
  5
1
330
0
100
AcDbSymbolTable
 70
     1
  0
BLOCK_RECORD
  5
1F
330
1
100
AcDbSymbolTableRecord
100
AcDbBlockTableRecord
  2
*MODEL_SPACE
  0
BLOCK_RECORD
  5
1B
330
1
100
AcDbSymbolTableRecord
100
AcDbBlockTableRecord
  2
*PAPER_SPACE
  0
ENDTAB
  0
ENDSEC
  0
SECTION
  2
BLOCKS
  0
BLOCK
  5
20
330
1F
100
AcDbEntity
  8
0
100
AcDbBlockBegin
  2
*MODEL_SPACE
 70
     0
 10
0.0
 20
0.0
 30
0.0
  3
*MODEL_SPACE
  1

  0
ENDBLK
  5
21
330
1F
100
AcDbEntity
  8
0
100
AcDbBlockEnd
  0
BLOCK
  5
1C
330
1B
100
AcDbEntity
 67
     1
  8
0
100
AcDbBlockBegin
  2
*PAPER_SPACE
  1

  0
ENDBLK
  5
1D
330
1B
100
AcDbEntity
 67
     1
  8
0
100
AcDbBlockEnd
  0
ENDSEC
  0
SECTION
  2
ENTITIES
  0
LWPOLYLINE
  5
100
100
AcDbEntity
  8
Layer_1
 62
7
100
AcDbPolyline
 90
5
 70
0
 10
10.000000
 20
390.000016
 30
0.0
 10
10.000000
 20
365.000012
 30
0.0
 10
420.000007
 20
365.000015
 30
0.0
 10
420.000007
 20
390.000016
 30
0.0
 10
10.000000
 20
390.000016
 30
0.0
  0
LWPOLYLINE
  5
101
100
AcDbEntity
  8
Layer_1
 62
5
100
AcDbPolyline
 90
5
 70
0
 10
115.000001
 20
368.000012
 30
0.0
 10
115.000001
 20
365.000012
 30
0.0
 10
165.000003
 20
365.000012
 30
0.0
 10
165.000003
 20
368.000012
 30
0.0
 10
115.000001
 20
368.000012
 30
0.0
  0
LWPOLYLINE
  5
102
100
AcDbEntity
  8
Layer_1
 62
5
100
AcDbPolyline
 90
5
 70
0
 10
220.000009
 20
368.000012
 30
0.0
 10
220.000009
 20
365.000012
 30
0.0
 10
270.000005
 20
365.000012
 30
0.0
 10
270.000005
 20
368.000012
 30
0.0
 10
220.000009
 20
368.000012
 30
0.0
  0
LWPOLYLINE
  5
103
100
AcDbEntity
  8
Layer_1
 62
5
100
AcDbPolyline
 90
5
 70
0
 10
314.999991
 20
368.000012
 30
0.0
 10
314.999991
 20
365.000012
 30
0.0
 10
339.999989
 20
365.000012
 30
0.0
 10
339.999989
 20
368.000012
 30
0.0
 10
314.999991
 20
368.000012
 30
0.0
  0
LWPOLYLINE
  5
104
100
AcDbEntity
  8
Layer_1
 62
5
100
AcDbPolyline
 90
5
 70
0
 10
384.999992
 20
368.000012
 30
0.0
 10
384.999992
 20
365.000012
 30
0.0
 10
419.999995
 20
365.000012
 30
0.0
 10
419.999995
 20
368.000012
 30
0.0
 10
384.999992
 20
368.000012
 30
0.0
  0
LWPOLYLINE
  5
105
100
AcDbEntity
  8
Layer_1
 62
5
100
AcDbPolyline
 90
5
 70
0
 10
10.000000
 20
368.000012
 30
0.0
 10
10.000000
 20
365.000012
 30
0.0
 10
59.999985
 20
365.000012
 30
0.0
 10
59.999985
 20
368.000012
 30
0.0
 10
10.000000
 20
368.000012
 30
0.0
  0
LWPOLYLINE
  5
106
100
AcDbEntity
  8
Layer_1
 62
7
100
AcDbPolyline
 90
41
 70
0
 10
93.749995
 20
385.000012
 30
0.0
 10
92.500010
 20
385.000012
 30
0.0
 10
92.500010
 20
383.750004
 30
0.0
 10
92.500010
 20
382.500014
 30
0.0
 10
91.250000
 20
382.500014
 30
0.0
 10
90.000003
 20
382.500014
 30
0.0
 10
90.000003
 20
383.750004
 30
0.0
 10
90.000003
 20
385.000012
 30
0.0
 10
88.749999
 20
385.000012
 30
0.0
 10
87.500000
 20
385.000012
 30
0.0
 10
87.500000
 20
383.750004
 30
0.0
 10
87.500000
 20
382.500014
 30
0.0
 10
86.250004
 20
382.500014
 30
0.0
 10
85.000005
 20
382.500014
 30
0.0
 10
85.000005
 20
383.750004
 30
0.0
 10
85.000005
 20
385.000012
 30
0.0
 10
83.750003
 20
385.000012
 30
0.0
 10
82.500002
 20
385.000012
 30
0.0
 10
82.500002
 20
383.750004
 30
0.0
 10
82.500002
 20
382.500014
 30
0.0
 10
81.250005
 20
382.500014
 30
0.0
 10
80.000001
 20
382.500014
 30
0.0
 10
80.000001
 20
376.250002
 30
0.0
 10
80.000001
 20
370.000011
 30
0.0
 10
85.000005
 20
370.000011
 30
0.0
 10
90.000003
 20
370.000011
 30
0.0
 10
90.000003
 20
372.500009
 30
0.0
 10
90.000003
 20
375.000012
 30
0.0
 10
88.749999
 20
375.000012
 30
0.0
 10
87.500000
 20
375.000012
 30
0.0
 10
87.500000
 20
376.250002
 30
0.0
 10
87.500000
 20
377.500010
 30
0.0
 10
90.000003
 20
377.500010
 30
0.0
 10
92.500010
 20
377.500010
 30
0.0
 10
92.500010
 20
375.000012
 30
0.0
 10
92.500010
 20
372.500009
 30
0.0
 10
93.749995
 20
372.500009
 30
0.0
 10
95.000002
 20
372.500009
 30
0.0
 10
95.000002
 20
378.750000
 30
0.0
 10
95.000002
 20
385.000012
 30
0.0
 10
93.749995
 20
385.000012
 30
0.0
  0
LWPOLYLINE
  5
107
100
AcDbEntity
  8
Layer_1
 62
7
100
AcDbPolyline
 90
9
 70
0
 10
86.250004
 20
372.500009
 30
0.0
 10
85.000005
 20
372.500009
 30
0.0
 10
85.000005
 20
373.750007
 30
0.0
 10
85.000005
 20
375.000012
 30
0.0
 10
86.250004
 20
375.000012
 30
0.0
 10
87.500000
 20
375.000012
 30
0.0
 10
87.500000
 20
373.750007
 30
0.0
 10
87.500000
 20
372.500009
 30
0.0
 10
86.250004
 20
372.500009
 30
0.0
  0
LWPOLYLINE
  5
108
100
AcDbEntity
  8
Layer_1
 62
7
100
AcDbPolyline
 90
9
 70
0
 10
83.750003
 20
377.500010
 30
0.0
 10
82.500002
 20
377.500010
 30
0.0
 10
82.500002
 20
378.750000
 30
0.0
 10
82.500002
 20
380.000005
 30
0.0
 10
83.750003
 20
380.000005
 30
0.0
 10
85.000005
 20
380.000005
 30
0.0
 10
85.000005
 20
378.750000
 30
0.0
 10
85.000005
 20
377.500010
 30
0.0
 10
83.750003
 20
377.500010
 30
0.0
  0
LWPOLYLINE
  5
109
100
AcDbEntity
  8
Layer_1
 62
7
100
AcDbPolyline
 90
9
 70
0
 10
154.999984
 20
160.000016
 30
0.0
 10
130.251248
 20
170.251287
 30
0.0
 10
119.999986
 20
195.000011
 30
0.0
 10
130.251245
 20
219.748746
 30
0.0
 10
154.999981
 20
230.000008
 30
0.0
 10
179.748716
 20
219.748749
 30
0.0
 10
189.999981
 20
195.000014
 30
0.0
 10
179.748719
 20
170.251287
 30
0.0
 10
154.999984
 20
160.000016
 30
0.0
  0
SPLINE
  5
10a
100
AcDbEntity
  8
Layer_1
 62
3
100
AcDbSpline
 70
8
 71
3
 72
8
 73
4
 74
0
 40
0
 40
0
 40
0
 40
0
 40
1
 40
1
 40
1
 40
1
 10
37.500007
 20
325.000019
 30
0.0
 10
41.965827
 20
325.000019
 30
0.0
 10
46.092415
 20
327.382505
 30
0.0
 10
48.325325
 20
331.250019
 30
0.0
  0
SPLINE
  5
10b
100
AcDbEntity
  8
Layer_1
 62
3
100
AcDbSpline
 70
8
 71
3
 72
8
 73
4
 74
0
 40
0
 40
0
 40
0
 40
0
 40
1
 40
1
 40
1
 40
1
 10
48.325325
 20
331.250019
 30
0.0
 10
50.558235
 20
335.117533
 30
0.0
 10
50.558235
 20
339.882506
 30
0.0
 10
48.325325
 20
343.750020
 30
0.0
  0
SPLINE
  5
10c
100
AcDbEntity
  8
Layer_1
 62
3
100
AcDbSpline
 70
8
 71
3
 72
8
 73
4
 74
0
 40
0
 40
0
 40
0
 40
0
 40
1
 40
1
 40
1
 40
1
 10
48.325325
 20
343.750020
 30
0.0
 10
46.092415
 20
347.617533
 30
0.0
 10
41.965827
 20
350.000020
 30
0.0
 10
37.500007
 20
350.000020
 30
0.0
  0
SPLINE
  5
10d
100
AcDbEntity
  8
Layer_1
 62
3
100
AcDbSpline
 70
8
 71
3
 72
8
 73
4
 74
0
 40
0
 40
0
 40
0
 40
0
 40
1
 40
1
 40
1
 40
1
 10
37.500007
 20
350.000020
 30
0.0
 10
33.034187
 20
350.000020
 30
0.0
 10
28.907599
 20
347.617533
 30
0.0
 10
26.674689
 20
343.750019
 30
0.0
  0
SPLINE
  5
10e
100
AcDbEntity
  8
Layer_1
 62
3
100
AcDbSpline
 70
8
 71
3
 72
8
 73
4
 74
0
 40
0
 40
0
 40
0
 40
0
 40
1
 40
1
 40
1
 40
1
 10
26.674689
 20
343.750019
 30
0.0
 10
24.441779
 20
339.882506
 30
0.0
 10
24.441779
 20
335.117533
 30
0.0
 10
26.674689
 20
331.250019
 30
0.0
  0
SPLINE
  5
10f
100
AcDbEntity
  8
Layer_1
 62
3
100
AcDbSpline
 70
8
 71
3
 72
8
 73
4
 74
0
 40
0
 40
0
 40
0
 40
0
 40
1
 40
1
 40
1
 40
1
 10
26.674689
 20
331.250019
 30
0.0
 10
28.907599
 20
327.382505
 30
0.0
 10
33.034187
 20
325.000019
 30
0.0
 10
37.500007
 20
325.000019
 30
0.0
  0
LWPOLYLINE
  5
110
100
AcDbEntity
  8
Layer_1
 62
7
100
AcDbPolyline
 90
5
 70
0
 10
9.999992
 20
360.000017
 30
0.0
 10
9.999992
 20
315.000020
 30
0.0
 10
414.875020
 20
315.000017
 30
0.0
 10
420.000007
 20
360.000017
 30
0.0
 10
9.999992
 20
360.000017
 30
0.0
  0
SPLINE
  5
111
100
AcDbEntity
  8
Layer_1
 62
3
100
AcDbSpline
 70
8
 71
3
 72
8
 73
4
 74
0
 40
0
 40
0
 40
0
 40
0
 40
1
 40
1
 40
1
 40
1
 10
250.000005
 20
325.000019
 30
0.0
 10
254.465825
 20
325.000019
 30
0.0
 10
258.592413
 20
327.382505
 30
0.0
 10
260.825323
 20
331.250019
 30
0.0
  0
SPLINE
  5
112
100
AcDbEntity
  8
Layer_1
 62
3
100
AcDbSpline
 70
8
 71
3
 72
8
 73
4
 74
0
 40
0
 40
0
 40
0
 40
0
 40
1
 40
1
 40
1
 40
1
 10
260.825323
 20
331.250019
 30
0.0
 10
263.058233
 20
335.117533
 30
0.0
 10
263.058233
 20
339.882506
 30
0.0
 10
260.825323
 20
343.750020
 30
0.0
  0
SPLINE
  5
113
100
AcDbEntity
  8
Layer_1
 62
3
100
AcDbSpline
 70
8
 71
3
 72
8
 73
4
 74
0
 40
0
 40
0
 40
0
 40
0
 40
1
 40
1
 40
1
 40
1
 10
260.825323
 20
343.750020
 30
0.0
 10
258.592413
 20
347.617533
 30
0.0
 10
254.465825
 20
350.000020
 30
0.0
 10
250.000005
 20
350.000020
 30
0.0
  0
SPLINE
  5
114
100
AcDbEntity
  8
Layer_1
 62
3
100
AcDbSpline
 70
8
 71
3
 72
8
 73
4
 74
0
 40
0
 40
0
 40
0
 40
0
 40
1
 40
1
 40
1
 40
1
 10
250.000005
 20
350.000020
 30
0.0
 10
245.534185
 20
350.000020
 30
0.0
 10
241.407597
 20
347.617533
 30
0.0
 10
239.174687
 20
343.750019
 30
0.0
  0
SPLINE
  5
115
100
AcDbEntity
  8
Layer_1
 62
3
100
AcDbSpline
 70
8
 71
3
 72
8
 73
4
 74
0
 40
0
 40
0
 40
0
 40
0
 40
1
 40
1
 40
1
 40
1
 10
239.174687
 20
343.750019
 30
0.0
 10
236.941777
 20
339.882506
 30
0.0
 10
236.941777
 20
335.117533
 30
0.0
 10
239.174687
 20
331.250019
 30
0.0
  0
SPLINE
  5
116
100
AcDbEntity
  8
Layer_1
 62
3
100
AcDbSpline
 70
8
 71
3
 72
8
 73
4
 74
0
 40
0
 40
0
 40
0
 40
0
 40
1
 40
1
 40
1
 40
1
 10
239.174687
 20
331.250019
 30
0.0
 10
241.407597
 20
327.382505
 30
0.0
 10
245.534185
 20
325.000019
 30
0.0
 10
250.000005
 20
325.000019
 30
0.0
  0
LWPOLYLINE
  5
117
100
AcDbEntity
  8
Layer_1
 62
3
100
AcDbPolyline
 90
2
 70
0
 10
37.500007
 20
325.000019
 30
0.0
 10
37.500007
 20
325.000019
 30
0.0
  0
LWPOLYLINE
  5
118
100
AcDbEntity
  8
Layer_1
 62
3
100
AcDbPolyline
 90
2
 70
0
 10
250.000005
 20
325.000019
 30
0.0
 10
250.000005
 20
325.000019
 30
0.0
  0
LWPOLYLINE
  5
119
100
AcDbEntity
  8
Layer_1
 62
5
100
AcDbPolyline
 90
5
 70
0
 10
219.999975
 20
318.000020
 30
0.0
 10
219.999975
 20
315.000020
 30
0.0
 10
164.999964
 20
315.000020
 30
0.0
 10
164.999964
 20
318.000020
 30
0.0
 10
219.999975
 20
318.000020
 30
0.0
  0
LWPOLYLINE
  5
11a
100
AcDbEntity
  8
Layer_1
 62
5
100
AcDbPolyline
 90
5
 70
0
 10
314.999934
 20
318.000020
 30
0.0
 10
314.999934
 20
315.000020
 30
0.0
 10
269.999934
 20
315.000020
 30
0.0
 10
269.999934
 20
318.000020
 30
0.0
 10
314.999934
 20
318.000020
 30
0.0
  0
LWPOLYLINE
  5
11b
100
AcDbEntity
  8
Layer_1
 62
5
100
AcDbPolyline
 90
5
 70
0
 10
114.999993
 20
318.000020
 30
0.0
 10
114.999993
 20
315.000020
 30
0.0
 10
60.000004
 20
315.000020
 30
0.0
 10
60.000004
 20
318.000020
 30
0.0
 10
114.999993
 20
318.000020
 30
0.0
  0
LWPOLYLINE
  5
11c
100
AcDbEntity
  8
Layer_1
 62
5
100
AcDbPolyline
 90
5
 70
0
 10
384.999936
 20
318.000020
 30
0.0
 10
384.999936
 20
315.000020
 30
0.0
 10
339.999935
 20
315.000020
 30
0.0
 10
339.999935
 20
318.000020
 30
0.0
 10
384.999936
 20
318.000020
 30
0.0
  0
LWPOLYLINE
  5
11d
100
AcDbEntity
  8
Layer_1
 62
5
100
AcDbPolyline
 90
5
 70
0
 10
219.999975
 20
360.000017
 30
0.0
 10
219.999975
 20
357.000017
 30
0.0
 10
164.999964
 20
357.000017
 30
0.0
 10
164.999964
 20
360.000017
 30
0.0
 10
219.999975
 20
360.000017
 30
0.0
  0
LWPOLYLINE
  5
11e
100
AcDbEntity
  8
Layer_1
 62
5
100
AcDbPolyline
 90
5
 70
0
 10
314.999934
 20
360.000017
 30
0.0
 10
314.999934
 20
357.000017
 30
0.0
 10
269.999934
 20
357.000017
 30
0.0
 10
269.999934
 20
360.000017
 30
0.0
 10
314.999934
 20
360.000017
 30
0.0
  0
LWPOLYLINE
  5
11f
100
AcDbEntity
  8
Layer_1
 62
5
100
AcDbPolyline
 90
5
 70
0
 10
114.999993
 20
360.000017
 30
0.0
 10
114.999993
 20
357.000017
 30
0.0
 10
60.000004
 20
357.000017
 30
0.0
 10
60.000004
 20
360.000017
 30
0.0
 10
114.999993
 20
360.000017
 30
0.0
  0
LWPOLYLINE
  5
120
100
AcDbEntity
  8
Layer_1
 62
5
100
AcDbPolyline
 90
5
 70
0
 10
384.999936
 20
360.000017
 30
0.0
 10
384.999936
 20
357.000017
 30
0.0
 10
339.999935
 20
357.000017
 30
0.0
 10
339.999935
 20
360.000017
 30
0.0
 10
384.999936
 20
360.000017
 30
0.0
  0
LWPOLYLINE
  5
121
100
AcDbEntity
  8
Layer_1
 62
7
100
AcDbPolyline
 90
41
 70
0
 10
298.750002
 20
385.000012
 30
0.0
 10
297.500012
 20
385.000012
 30
0.0
 10
297.500012
 20
383.750004
 30
0.0
 10
297.500012
 20
382.500014
 30
0.0
 10
296.249993
 20
382.500014
 30
0.0
 10
295.000003
 20
382.500014
 30
0.0
 10
295.000003
 20
383.750004
 30
0.0
 10
295.000003
 20
385.000012
 30
0.0
 10
293.749984
 20
385.000012
 30
0.0
 10
292.499994
 20
385.000012
 30
0.0
 10
292.499994
 20
383.750004
 30
0.0
 10
292.499994
 20
382.500014
 30
0.0
 10
291.250003
 20
382.500014
 30
0.0
 10
290.000013
 20
382.500014
 30
0.0
 10
290.000013
 20
383.750004
 30
0.0
 10
290.000013
 20
385.000012
 30
0.0
 10
288.749994
 20
385.000012
 30
0.0
 10
287.500004
 20
385.000012
 30
0.0
 10
287.500004
 20
383.750004
 30
0.0
 10
287.500004
 20
382.500014
 30
0.0
 10
286.250013
 20
382.500014
 30
0.0
 10
284.999994
 20
382.500014
 30
0.0
 10
284.999994
 20
376.250002
 30
0.0
 10
284.999994
 20
370.000011
 30
0.0
 10
290.000013
 20
370.000011
 30
0.0
 10
295.000003
 20
370.000011
 30
0.0
 10
295.000003
 20
372.500009
 30
0.0
 10
295.000003
 20
375.000012
 30
0.0
 10
293.749984
 20
375.000012
 30
0.0
 10
292.499994
 20
375.000012
 30
0.0
 10
292.499994
 20
376.250002
 30
0.0
 10
292.499994
 20
377.500010
 30
0.0
 10
295.000003
 20
377.500010
 30
0.0
 10
297.500012
 20
377.500010
 30
0.0
 10
297.500012
 20
375.000012
 30
0.0
 10
297.500012
 20
372.500009
 30
0.0
 10
298.750002
 20
372.500009
 30
0.0
 10
299.999993
 20
372.500009
 30
0.0
 10
299.999993
 20
378.750000
 30
0.0
 10
299.999993
 20
385.000012
 30
0.0
 10
298.750002
 20
385.000012
 30
0.0
  0
LWPOLYLINE
  5
122
100
AcDbEntity
  8
Layer_1
 62
7
100
AcDbPolyline
 90
9
 70
0
 10
291.250003
 20
372.500009
 30
0.0
 10
290.000013
 20
372.500009
 30
0.0
 10
290.000013
 20
373.750007
 30
0.0
 10
290.000013
 20
375.000012
 30
0.0
 10
291.250003
 20
375.000012
 30
0.0
 10
292.499994
 20
375.000012
 30
0.0
 10
292.499994
 20
373.750007
 30
0.0
 10
292.499994
 20
372.500009
 30
0.0
 10
291.250003
 20
372.500009
 30
0.0
  0
SPLINE
  5
123
100
AcDbEntity
  8
Layer_1
 62
3
100
AcDbSpline
 70
8
 71
3
 72
8
 73
4
 74
0
 40
0
 40
0
 40
0
 40
0
 40
1
 40
1
 40
1
 40
1
 10
154.999984
 20
182.500016
 30
0.0
 10
159.465804
 20
182.500016
 30
0.0
 10
163.592392
 20
184.882503
 30
0.0
 10
165.825302
 20
188.750016
 30
0.0
  0
SPLINE
  5
124
100
AcDbEntity
  8
Layer_1
 62
3
100
AcDbSpline
 70
8
 71
3
 72
8
 73
4
 74
0
 40
0
 40
0
 40
0
 40
0
 40
1
 40
1
 40
1
 40
1
 10
165.825302
 20
188.750016
 30
0.0
 10
168.058212
 20
192.617530
 30
0.0
 10
168.058212
 20
197.382503
 30
0.0
 10
165.825302
 20
201.250017
 30
0.0
  0
SPLINE
  5
125
100
AcDbEntity
  8
Layer_1
 62
3
100
AcDbSpline
 70
8
 71
3
 72
8
 73
4
 74
0
 40
0
 40
0
 40
0
 40
0
 40
1
 40
1
 40
1
 40
1
 10
165.825302
 20
201.250017
 30
0.0
 10
163.592392
 20
205.117531
 30
0.0
 10
159.465804
 20
207.500017
 30
0.0
 10
154.999984
 20
207.500017
 30
0.0
  0
SPLINE
  5
126
100
AcDbEntity
  8
Layer_1
 62
3
100
AcDbSpline
 70
8
 71
3
 72
8
 73
4
 74
0
 40
0
 40
0
 40
0
 40
0
 40
1
 40
1
 40
1
 40
1
 10
154.999984
 20
207.500017
 30
0.0
 10
150.534163
 20
207.500017
 30
0.0
 10
146.407576
 20
205.117530
 30
0.0
 10
144.174666
 20
201.250017
 30
0.0
  0
SPLINE
  5
127
100
AcDbEntity
  8
Layer_1
 62
3
100
AcDbSpline
 70
8
 71
3
 72
8
 73
4
 74
0
 40
0
 40
0
 40
0
 40
0
 40
1
 40
1
 40
1
 40
1
 10
144.174666
 20
201.250017
 30
0.0
 10
141.941756
 20
197.382503
 30
0.0
 10
141.941756
 20
192.617530
 30
0.0
 10
144.174666
 20
188.750016
 30
0.0
  0
SPLINE
  5
128
100
AcDbEntity
  8
Layer_1
 62
3
100
AcDbSpline
 70
8
 71
3
 72
8
 73
4
 74
0
 40
0
 40
0
 40
0
 40
0
 40
1
 40
1
 40
1
 40
1
 10
144.174666
 20
188.750016
 30
0.0
 10
146.407576
 20
184.882503
 30
0.0
 10
150.534163
 20
182.500016
 30
0.0
 10
154.999984
 20
182.500016
 30
0.0
  0
LWPOLYLINE
  5
129
100
AcDbEntity
  8
Layer_1
 62
7
100
AcDbPolyline
 90
9
 70
0
 10
288.749994
 20
377.500010
 30
0.0
 10
287.500004
 20
377.500010
 30
0.0
 10
287.500004
 20
378.750000
 30
0.0
 10
287.500004
 20
380.000005
 30
0.0
 10
288.749994
 20
380.000005
 30
0.0
 10
290.000013
 20
380.000005
 30
0.0
 10
290.000013
 20
378.750000
 30
0.0
 10
290.000013
 20
377.500010
 30
0.0
 10
288.749994
 20
377.500010
 30
0.0
  0
LWPOLYLINE
  5
12a
100
AcDbEntity
  8
Layer_1
 62
3
100
AcDbPolyline
 90
2
 70
0
 10
154.999984
 20
182.500016
 30
0.0
 10
154.999984
 20
182.500016
 30
0.0
  0
SPLINE
  5
12b
100
AcDbEntity
  8
Layer_1
 62
3
100
AcDbSpline
 70
8
 71
3
 72
8
 73
4
 74
0
 40
0
 40
0
 40
0
 40
0
 40
1
 40
1
 40
1
 40
1
 10
224.999985
 20
182.500013
 30
0.0
 10
229.465805
 20
182.500013
 30
0.0
 10
233.592393
 20
184.882500
 30
0.0
 10
235.825303
 20
188.750013
 30
0.0
  0
SPLINE
  5
12c
100
AcDbEntity
  8
Layer_1
 62
3
100
AcDbSpline
 70
8
 71
3
 72
8
 73
4
 74
0
 40
0
 40
0
 40
0
 40
0
 40
1
 40
1
 40
1
 40
1
 10
235.825303
 20
188.750013
 30
0.0
 10
238.058213
 20
192.617527
 30
0.0
 10
238.058213
 20
197.382500
 30
0.0
 10
235.825303
 20
201.250014
 30
0.0
  0
SPLINE
  5
12d
100
AcDbEntity
  8
Layer_1
 62
3
100
AcDbSpline
 70
8
 71
3
 72
8
 73
4
 74
0
 40
0
 40
0
 40
0
 40
0
 40
1
 40
1
 40
1
 40
1
 10
235.825303
 20
201.250014
 30
0.0
 10
233.592393
 20
205.117528
 30
0.0
 10
229.465805
 20
207.500014
 30
0.0
 10
224.999985
 20
207.500014
 30
0.0
  0
SPLINE
  5
12e
100
AcDbEntity
  8
Layer_1
 62
3
100
AcDbSpline
 70
8
 71
3
 72
8
 73
4
 74
0
 40
0
 40
0
 40
0
 40
0
 40
1
 40
1
 40
1
 40
1
 10
224.999985
 20
207.500014
 30
0.0
 10
220.534165
 20
207.500014
 30
0.0
 10
216.407577
 20
205.117528
 30
0.0
 10
214.174667
 20
201.250014
 30
0.0
  0
SPLINE
  5
12f
100
AcDbEntity
  8
Layer_1
 62
3
100
AcDbSpline
 70
8
 71
3
 72
8
 73
4
 74
0
 40
0
 40
0
 40
0
 40
0
 40
1
 40
1
 40
1
 40
1
 10
214.174667
 20
201.250014
 30
0.0
 10
211.941757
 20
197.382500
 30
0.0
 10
211.941757
 20
192.617527
 30
0.0
 10
214.174667
 20
188.750014
 30
0.0
  0
SPLINE
  5
130
100
AcDbEntity
  8
Layer_1
 62
3
100
AcDbSpline
 70
8
 71
3
 72
8
 73
4
 74
0
 40
0
 40
0
 40
0
 40
0
 40
1
 40
1
 40
1
 40
1
 10
214.174667
 20
188.750014
 30
0.0
 10
216.407577
 20
184.882500
 30
0.0
 10
220.534165
 20
182.500013
 30
0.0
 10
224.999985
 20
182.500013
 30
0.0
  0
LWPOLYLINE
  5
131
100
AcDbEntity
  8
Layer_1
 62
7
100
AcDbPolyline
 90
9
 70
0
 10
224.999985
 20
160.000016
 30
0.0
 10
200.251249
 20
170.251287
 30
0.0
 10
189.999987
 20
195.000011
 30
0.0
 10
200.251246
 20
219.748746
 30
0.0
 10
224.999982
 20
230.000008
 30
0.0
 10
249.748717
 20
219.748749
 30
0.0
 10
259.999982
 20
195.000014
 30
0.0
 10
249.748720
 20
170.251287
 30
0.0
 10
224.999985
 20
160.000016
 30
0.0
  0
LWPOLYLINE
  5
132
100
AcDbEntity
  8
Layer_1
 62
3
100
AcDbPolyline
 90
2
 70
0
 10
224.999985
 20
182.500013
 30
0.0
 10
224.999985
 20
182.500013
 30
0.0
  0
LWPOLYLINE
  5
133
100
AcDbEntity
  8
Layer_1
 62
5
100
AcDbPolyline
 90
5
 70
0
 10
115.000001
 20
390.000016
 30
0.0
 10
115.000001
 20
387.000016
 30
0.0
 10
165.000003
 20
387.000016
 30
0.0
 10
165.000003
 20
390.000016
 30
0.0
 10
115.000001
 20
390.000016
 30
0.0
  0
LWPOLYLINE
  5
134
100
AcDbEntity
  8
Layer_1
 62
5
100
AcDbPolyline
 90
5
 70
0
 10
220.000009
 20
390.000016
 30
0.0
 10
220.000009
 20
387.000016
 30
0.0
 10
270.000005
 20
387.000016
 30
0.0
 10
270.000005
 20
390.000016
 30
0.0
 10
220.000009
 20
390.000016
 30
0.0
  0
LWPOLYLINE
  5
135
100
AcDbEntity
  8
Layer_1
 62
5
100
AcDbPolyline
 90
5
 70
0
 10
314.999991
 20
390.000016
 30
0.0
 10
314.999991
 20
387.000016
 30
0.0
 10
339.999989
 20
387.000016
 30
0.0
 10
339.999989
 20
390.000016
 30
0.0
 10
314.999991
 20
390.000016
 30
0.0
  0
LWPOLYLINE
  5
136
100
AcDbEntity
  8
Layer_1
 62
5
100
AcDbPolyline
 90
5
 70
0
 10
384.999992
 20
390.000016
 30
0.0
 10
384.999992
 20
387.000016
 30
0.0
 10
419.999995
 20
387.000016
 30
0.0
 10
419.999995
 20
390.000016
 30
0.0
 10
384.999992
 20
390.000016
 30
0.0
  0
LWPOLYLINE
  5
137
100
AcDbEntity
  8
Layer_1
 62
5
100
AcDbPolyline
 90
9
 70
0
 10
10.000000
 20
390.000016
 30
0.0
 10
10.000000
 20
387.000016
 30
0.0
 10
59.999985
 20
387.000016
 30
0.0
 10
59.999985
 20
390.000016
 30
0.0
 10
10.000000
 20
390.000016
 30
0.0
 10
10.000000
 20
365.000012
 30
0.0
 10
420.000007
 20
365.000015
 30
0.0
 10
420.000007
 20
390.000016
 30
0.0
 10
10.000000
 20
390.000016
 30
0.0
  0
LWPOLYLINE
  5
138
100
AcDbEntity
  8
Layer_1
 62
5
100
AcDbPolyline
 90
5
 70
0
 10
115.000001
 20
368.000012
 30
0.0
 10
115.000001
 20
365.000012
 30
0.0
 10
165.000003
 20
365.000012
 30
0.0
 10
165.000003
 20
368.000012
 30
0.0
 10
115.000001
 20
368.000012
 30
0.0
  0
LWPOLYLINE
  5
139
100
AcDbEntity
  8
Layer_1
 62
5
100
AcDbPolyline
 90
5
 70
0
 10
220.000009
 20
368.000012
 30
0.0
 10
220.000009
 20
365.000012
 30
0.0
 10
270.000005
 20
365.000012
 30
0.0
 10
270.000005
 20
368.000012
 30
0.0
 10
220.000009
 20
368.000012
 30
0.0
  0
LWPOLYLINE
  5
13a
100
AcDbEntity
  8
Layer_1
 62
5
100
AcDbPolyline
 90
5
 70
0
 10
314.999991
 20
368.000012
 30
0.0
 10
314.999991
 20
365.000012
 30
0.0
 10
339.999989
 20
365.000012
 30
0.0
 10
339.999989
 20
368.000012
 30
0.0
 10
314.999991
 20
368.000012
 30
0.0
  0
LWPOLYLINE
  5
13b
100
AcDbEntity
  8
Layer_1
 62
5
100
AcDbPolyline
 90
5
 70
0
 10
384.999992
 20
368.000012
 30
0.0
 10
384.999992
 20
365.000012
 30
0.0
 10
419.999995
 20
365.000012
 30
0.0
 10
419.999995
 20
368.000012
 30
0.0
 10
384.999992
 20
368.000012
 30
0.0
  0
LWPOLYLINE
  5
13c
100
AcDbEntity
  8
Layer_1
 62
5
100
AcDbPolyline
 90
5
 70
0
 10
10.000000
 20
368.000012
 30
0.0
 10
10.000000
 20
365.000012
 30
0.0
 10
59.999985
 20
365.000012
 30
0.0
 10
59.999985
 20
368.000012
 30
0.0
 10
10.000000
 20
368.000012
 30
0.0
  0
LWPOLYLINE
  5
13d
100
AcDbEntity
  8
Layer_1
 62
1
100
AcDbPolyline
 90
41
 70
0
 10
93.749995
 20
385.000012
 30
0.0
 10
92.500010
 20
385.000012
 30
0.0
 10
92.500010
 20
383.750004
 30
0.0
 10
92.500010
 20
382.500014
 30
0.0
 10
91.250000
 20
382.500014
 30
0.0
 10
90.000003
 20
382.500014
 30
0.0
 10
90.000003
 20
383.750004
 30
0.0
 10
90.000003
 20
385.000012
 30
0.0
 10
88.749999
 20
385.000012
 30
0.0
 10
87.500000
 20
385.000012
 30
0.0
 10
87.500000
 20
383.750004
 30
0.0
 10
87.500000
 20
382.500014
 30
0.0
 10
86.250004
 20
382.500014
 30
0.0
 10
85.000005
 20
382.500014
 30
0.0
 10
85.000005
 20
383.750004
 30
0.0
 10
85.000005
 20
385.000012
 30
0.0
 10
83.750003
 20
385.000012
 30
0.0
 10
82.500002
 20
385.000012
 30
0.0
 10
82.500002
 20
383.750004
 30
0.0
 10
82.500002
 20
382.500014
 30
0.0
 10
81.250005
 20
382.500014
 30
0.0
 10
80.000001
 20
382.500014
 30
0.0
 10
80.000001
 20
376.250002
 30
0.0
 10
80.000001
 20
370.000011
 30
0.0
 10
85.000005
 20
370.000011
 30
0.0
 10
90.000003
 20
370.000011
 30
0.0
 10
90.000003
 20
372.500009
 30
0.0
 10
90.000003
 20
375.000012
 30
0.0
 10
88.749999
 20
375.000012
 30
0.0
 10
87.500000
 20
375.000012
 30
0.0
 10
87.500000
 20
376.250002
 30
0.0
 10
87.500000
 20
377.500010
 30
0.0
 10
90.000003
 20
377.500010
 30
0.0
 10
92.500010
 20
377.500010
 30
0.0
 10
92.500010
 20
375.000012
 30
0.0
 10
92.500010
 20
372.500009
 30
0.0
 10
93.749995
 20
372.500009
 30
0.0
 10
95.000002
 20
372.500009
 30
0.0
 10
95.000002
 20
378.750000
 30
0.0
 10
95.000002
 20
385.000012
 30
0.0
 10
93.749995
 20
385.000012
 30
0.0
  0
LWPOLYLINE
  5
13e
100
AcDbEntity
  8
Layer_1
 62
1
100
AcDbPolyline
 90
9
 70
0
 10
86.250004
 20
372.500009
 30
0.0
 10
85.000005
 20
372.500009
 30
0.0
 10
85.000005
 20
373.750007
 30
0.0
 10
85.000005
 20
375.000012
 30
0.0
 10
86.250004
 20
375.000012
 30
0.0
 10
87.500000
 20
375.000012
 30
0.0
 10
87.500000
 20
373.750007
 30
0.0
 10
87.500000
 20
372.500009
 30
0.0
 10
86.250004
 20
372.500009
 30
0.0
  0
LWPOLYLINE
  5
13f
100
AcDbEntity
  8
Layer_1
 62
1
100
AcDbPolyline
 90
9
 70
0
 10
83.750003
 20
377.500010
 30
0.0
 10
82.500002
 20
377.500010
 30
0.0
 10
82.500002
 20
378.750000
 30
0.0
 10
82.500002
 20
380.000005
 30
0.0
 10
83.750003
 20
380.000005
 30
0.0
 10
85.000005
 20
380.000005
 30
0.0
 10
85.000005
 20
378.750000
 30
0.0
 10
85.000005
 20
377.500010
 30
0.0
 10
83.750003
 20
377.500010
 30
0.0
  0
LWPOLYLINE
  5
140
100
AcDbEntity
  8
Layer_1
 62
1
100
AcDbPolyline
 90
41
 70
0
 10
298.750002
 20
385.000012
 30
0.0
 10
297.500012
 20
385.000012
 30
0.0
 10
297.500012
 20
383.750004
 30
0.0
 10
297.500012
 20
382.500014
 30
0.0
 10
296.249993
 20
382.500014
 30
0.0
 10
295.000003
 20
382.500014
 30
0.0
 10
295.000003
 20
383.750004
 30
0.0
 10
295.000003
 20
385.000012
 30
0.0
 10
293.749984
 20
385.000012
 30
0.0
 10
292.499994
 20
385.000012
 30
0.0
 10
292.499994
 20
383.750004
 30
0.0
 10
292.499994
 20
382.500014
 30
0.0
 10
291.250003
 20
382.500014
 30
0.0
 10
290.000013
 20
382.500014
 30
0.0
 10
290.000013
 20
383.750004
 30
0.0
 10
290.000013
 20
385.000012
 30
0.0
 10
288.749994
 20
385.000012
 30
0.0
 10
287.500004
 20
385.000012
 30
0.0
 10
287.500004
 20
383.750004
 30
0.0
 10
287.500004
 20
382.500014
 30
0.0
 10
286.250013
 20
382.500014
 30
0.0
 10
284.999994
 20
382.500014
 30
0.0
 10
284.999994
 20
376.250002
 30
0.0
 10
284.999994
 20
370.000011
 30
0.0
 10
290.000013
 20
370.000011
 30
0.0
 10
295.000003
 20
370.000011
 30
0.0
 10
295.000003
 20
372.500009
 30
0.0
 10
295.000003
 20
375.000012
 30
0.0
 10
293.749984
 20
375.000012
 30
0.0
 10
292.499994
 20
375.000012
 30
0.0
 10
292.499994
 20
376.250002
 30
0.0
 10
292.499994
 20
377.500010
 30
0.0
 10
295.000003
 20
377.500010
 30
0.0
 10
297.500012
 20
377.500010
 30
0.0
 10
297.500012
 20
375.000012
 30
0.0
 10
297.500012
 20
372.500009
 30
0.0
 10
298.750002
 20
372.500009
 30
0.0
 10
299.999993
 20
372.500009
 30
0.0
 10
299.999993
 20
378.750000
 30
0.0
 10
299.999993
 20
385.000012
 30
0.0
 10
298.750002
 20
385.000012
 30
0.0
  0
LWPOLYLINE
  5
141
100
AcDbEntity
  8
Layer_1
 62
1
100
AcDbPolyline
 90
9
 70
0
 10
291.250003
 20
372.500009
 30
0.0
 10
290.000013
 20
372.500009
 30
0.0
 10
290.000013
 20
373.750007
 30
0.0
 10
290.000013
 20
375.000012
 30
0.0
 10
291.250003
 20
375.000012
 30
0.0
 10
292.499994
 20
375.000012
 30
0.0
 10
292.499994
 20
373.750007
 30
0.0
 10
292.499994
 20
372.500009
 30
0.0
 10
291.250003
 20
372.500009
 30
0.0
  0
LWPOLYLINE
  5
142
100
AcDbEntity
  8
Layer_1
 62
1
100
AcDbPolyline
 90
9
 70
0
 10
288.749994
 20
377.500010
 30
0.0
 10
287.500004
 20
377.500010
 30
0.0
 10
287.500004
 20
378.750000
 30
0.0
 10
287.500004
 20
380.000005
 30
0.0
 10
288.749994
 20
380.000005
 30
0.0
 10
290.000013
 20
380.000005
 30
0.0
 10
290.000013
 20
378.750000
 30
0.0
 10
290.000013
 20
377.500010
 30
0.0
 10
288.749994
 20
377.500010
 30
0.0
  0
LWPOLYLINE
  5
143
100
AcDbEntity
  8
Layer_1
 62
5
100
AcDbPolyline
 90
5
 70
0
 10
115.000001
 20
390.000016
 30
0.0
 10
115.000001
 20
387.000016
 30
0.0
 10
165.000003
 20
387.000016
 30
0.0
 10
165.000003
 20
390.000016
 30
0.0
 10
115.000001
 20
390.000016
 30
0.0
  0
LWPOLYLINE
  5
144
100
AcDbEntity
  8
Layer_1
 62
5
100
AcDbPolyline
 90
5
 70
0
 10
220.000009
 20
390.000016
 30
0.0
 10
220.000009
 20
387.000016
 30
0.0
 10
270.000005
 20
387.000016
 30
0.0
 10
270.000005
 20
390.000016
 30
0.0
 10
220.000009
 20
390.000016
 30
0.0
  0
LWPOLYLINE
  5
145
100
AcDbEntity
  8
Layer_1
 62
5
100
AcDbPolyline
 90
5
 70
0
 10
314.999991
 20
390.000016
 30
0.0
 10
314.999991
 20
387.000016
 30
0.0
 10
339.999989
 20
387.000016
 30
0.0
 10
339.999989
 20
390.000016
 30
0.0
 10
314.999991
 20
390.000016
 30
0.0
  0
LWPOLYLINE
  5
146
100
AcDbEntity
  8
Layer_1
 62
5
100
AcDbPolyline
 90
5
 70
0
 10
384.999992
 20
390.000016
 30
0.0
 10
384.999992
 20
387.000016
 30
0.0
 10
419.999995
 20
387.000016
 30
0.0
 10
419.999995
 20
390.000016
 30
0.0
 10
384.999992
 20
390.000016
 30
0.0
  0
LWPOLYLINE
  5
147
100
AcDbEntity
  8
Layer_1
 62
5
100
AcDbPolyline
 90
5
 70
0
 10
10.000000
 20
390.000016
 30
0.0
 10
10.000000
 20
387.000016
 30
0.0
 10
59.999985
 20
387.000016
 30
0.0
 10
59.999985
 20
390.000016
 30
0.0
 10
10.000000
 20
390.000016
 30
0.0
  0
LWPOLYLINE
  5
148
100
AcDbEntity
  8
Layer_1
 62
7
100
AcDbPolyline
 90
5
 70
0
 10
10.000014
 20
310.000022
 30
0.0
 10
10.000014
 20
285.000020
 30
0.0
 10
414.999988
 20
285.000023
 30
0.0
 10
414.999988
 20
310.000022
 30
0.0
 10
10.000014
 20
310.000022
 30
0.0
  0
LWPOLYLINE
  5
149
100
AcDbEntity
  8
Layer_1
 62
5
100
AcDbPolyline
 90
5
 70
0
 10
115.000027
 20
288.000013
 30
0.0
 10
115.000027
 20
285.000013
 30
0.0
 10
165.000028
 20
285.000013
 30
0.0
 10
165.000028
 20
288.000013
 30
0.0
 10
115.000027
 20
288.000013
 30
0.0
  0
LWPOLYLINE
  5
14a
100
AcDbEntity
  8
Layer_1
 62
5
100
AcDbPolyline
 90
5
 70
0
 10
220.000026
 20
288.000013
 30
0.0
 10
220.000026
 20
285.000013
 30
0.0
 10
270.000022
 20
285.000013
 30
0.0
 10
270.000022
 20
288.000013
 30
0.0
 10
220.000026
 20
288.000013
 30
0.0
  0
LWPOLYLINE
  5
14b
100
AcDbEntity
  8
Layer_1
 62
5
100
AcDbPolyline
 90
5
 70
0
 10
314.999963
 20
288.000013
 30
0.0
 10
314.999963
 20
285.000013
 30
0.0
 10
339.999961
 20
285.000013
 30
0.0
 10
339.999961
 20
288.000013
 30
0.0
 10
314.999963
 20
288.000013
 30
0.0
  0
LWPOLYLINE
  5
14c
100
AcDbEntity
  8
Layer_1
 62
5
100
AcDbPolyline
 90
5
 70
0
 10
384.999964
 20
288.000013
 30
0.0
 10
384.999964
 20
285.000013
 30
0.0
 10
415.000003
 20
285.000013
 30
0.0
 10
415.000003
 20
288.000013
 30
0.0
 10
384.999964
 20
288.000013
 30
0.0
  0
LWPOLYLINE
  5
14d
100
AcDbEntity
  8
Layer_1
 62
5
100
AcDbPolyline
 90
5
 70
0
 10
10.000016
 20
288.000013
 30
0.0
 10
10.000016
 20
285.000013
 30
0.0
 10
60.000001
 20
285.000013
 30
0.0
 10
60.000001
 20
288.000013
 30
0.0
 10
10.000016
 20
288.000013
 30
0.0
  0
LWPOLYLINE
  5
14e
100
AcDbEntity
  8
Layer_1
 62
1
100
AcDbPolyline
 90
41
 70
0
 10
93.750009
 20
305.000018
 30
0.0
 10
92.500024
 20
305.000018
 30
0.0
 10
92.500024
 20
303.750010
 30
0.0
 10
92.500024
 20
302.500019
 30
0.0
 10
91.250014
 20
302.500019
 30
0.0
 10
90.000018
 20
302.500019
 30
0.0
 10
90.000018
 20
303.750010
 30
0.0
 10
90.000018
 20
305.000018
 30
0.0
 10
88.750013
 20
305.000018
 30
0.0
 10
87.500014
 20
305.000018
 30
0.0
 10
87.500014
 20
303.750010
 30
0.0
 10
87.500014
 20
302.500019
 30
0.0
 10
86.250018
 20
302.500019
 30
0.0
 10
85.000019
 20
302.500019
 30
0.0
 10
85.000019
 20
303.750010
 30
0.0
 10
85.000019
 20
305.000018
 30
0.0
 10
83.750017
 20
305.000018
 30
0.0
 10
82.500016
 20
305.000018
 30
0.0
 10
82.500016
 20
303.750010
 30
0.0
 10
82.500016
 20
302.500019
 30
0.0
 10
81.250020
 20
302.500019
 30
0.0
 10
80.000015
 20
302.500019
 30
0.0
 10
80.000015
 20
296.250011
 30
0.0
 10
80.000015
 20
290.000019
 30
0.0
 10
85.000019
 20
290.000019
 30
0.0
 10
90.000018
 20
290.000019
 30
0.0
 10
90.000018
 20
292.500017
 30
0.0
 10
90.000018
 20
295.000020
 30
0.0
 10
88.750013
 20
295.000020
 30
0.0
 10
87.500014
 20
295.000020
 30
0.0
 10
87.500014
 20
296.250011
 30
0.0
 10
87.500014
 20
297.500018
 30
0.0
 10
90.000018
 20
297.500018
 30
0.0
 10
92.500024
 20
297.500018
 30
0.0
 10
92.500024
 20
295.000020
 30
0.0
 10
92.500024
 20
292.500017
 30
0.0
 10
93.750009
 20
292.500017
 30
0.0
 10
95.000016
 20
292.500017
 30
0.0
 10
95.000016
 20
298.750009
 30
0.0
 10
95.000016
 20
305.000018
 30
0.0
 10
93.750009
 20
305.000018
 30
0.0
  0
LWPOLYLINE
  5
14f
100
AcDbEntity
  8
Layer_1
 62
1
100
AcDbPolyline
 90
9
 70
0
 10
86.250018
 20
292.500017
 30
0.0
 10
85.000019
 20
292.500017
 30
0.0
 10
85.000019
 20
293.750016
 30
0.0
 10
85.000019
 20
295.000020
 30
0.0
 10
86.250018
 20
295.000020
 30
0.0
 10
87.500014
 20
295.000020
 30
0.0
 10
87.500014
 20
293.750016
 30
0.0
 10
87.500014
 20
292.500017
 30
0.0
 10
86.250018
 20
292.500017
 30
0.0
  0
LWPOLYLINE
  5
150
100
AcDbEntity
  8
Layer_1
 62
1
100
AcDbPolyline
 90
9
 70
0
 10
83.750017
 20
297.500018
 30
0.0
 10
82.500016
 20
297.500018
 30
0.0
 10
82.500016
 20
298.750009
 30
0.0
 10
82.500016
 20
300.000013
 30
0.0
 10
83.750017
 20
300.000013
 30
0.0
 10
85.000019
 20
300.000013
 30
0.0
 10
85.000019
 20
298.750009
 30
0.0
 10
85.000019
 20
297.500018
 30
0.0
 10
83.750017
 20
297.500018
 30
0.0
  0
LWPOLYLINE
  5
151
100
AcDbEntity
  8
Layer_1
 62
1
100
AcDbPolyline
 90
41
 70
0
 10
298.750002
 20
305.000018
 30
0.0
 10
297.500012
 20
305.000018
 30
0.0
 10
297.500012
 20
303.750010
 30
0.0
 10
297.500012
 20
302.500019
 30
0.0
 10
296.249993
 20
302.500019
 30
0.0
 10
295.000003
 20
302.500019
 30
0.0
 10
295.000003
 20
303.750010
 30
0.0
 10
295.000003
 20
305.000018
 30
0.0
 10
293.749984
 20
305.000018
 30
0.0
 10
292.499994
 20
305.000018
 30
0.0
 10
292.499994
 20
303.750010
 30
0.0
 10
292.499994
 20
302.500019
 30
0.0
 10
291.250003
 20
302.500019
 30
0.0
 10
290.000013
 20
302.500019
 30
0.0
 10
290.000013
 20
303.750010
 30
0.0
 10
290.000013
 20
305.000018
 30
0.0
 10
288.749994
 20
305.000018
 30
0.0
 10
287.500004
 20
305.000018
 30
0.0
 10
287.500004
 20
303.750010
 30
0.0
 10
287.500004
 20
302.500019
 30
0.0
 10
286.250013
 20
302.500019
 30
0.0
 10
284.999994
 20
302.500019
 30
0.0
 10
284.999994
 20
296.250011
 30
0.0
 10
284.999994
 20
290.000019
 30
0.0
 10
290.000013
 20
290.000019
 30
0.0
 10
295.000003
 20
290.000019
 30
0.0
 10
295.000003
 20
292.500017
 30
0.0
 10
295.000003
 20
295.000020
 30
0.0
 10
293.749984
 20
295.000020
 30
0.0
 10
292.499994
 20
295.000020
 30
0.0
 10
292.499994
 20
296.250011
 30
0.0
 10
292.499994
 20
297.500018
 30
0.0
 10
295.000003
 20
297.500018
 30
0.0
 10
297.500012
 20
297.500018
 30
0.0
 10
297.500012
 20
295.000020
 30
0.0
 10
297.500012
 20
292.500017
 30
0.0
 10
298.750002
 20
292.500017
 30
0.0
 10
299.999993
 20
292.500017
 30
0.0
 10
299.999993
 20
298.750009
 30
0.0
 10
299.999993
 20
305.000018
 30
0.0
 10
298.750002
 20
305.000018
 30
0.0
  0
LWPOLYLINE
  5
152
100
AcDbEntity
  8
Layer_1
 62
1
100
AcDbPolyline
 90
9
 70
0
 10
291.250003
 20
292.500017
 30
0.0
 10
290.000013
 20
292.500017
 30
0.0
 10
290.000013
 20
293.750016
 30
0.0
 10
290.000013
 20
295.000020
 30
0.0
 10
291.250003
 20
295.000020
 30
0.0
 10
292.499994
 20
295.000020
 30
0.0
 10
292.499994
 20
293.750016
 30
0.0
 10
292.499994
 20
292.500017
 30
0.0
 10
291.250003
 20
292.500017
 30
0.0
  0
LWPOLYLINE
  5
153
100
AcDbEntity
  8
Layer_1
 62
1
100
AcDbPolyline
 90
9
 70
0
 10
288.749994
 20
297.500018
 30
0.0
 10
287.500004
 20
297.500018
 30
0.0
 10
287.500004
 20
298.750009
 30
0.0
 10
287.500004
 20
300.000013
 30
0.0
 10
288.749994
 20
300.000013
 30
0.0
 10
290.000013
 20
300.000013
 30
0.0
 10
290.000013
 20
298.750009
 30
0.0
 10
290.000013
 20
297.500018
 30
0.0
 10
288.749994
 20
297.500018
 30
0.0
  0
LWPOLYLINE
  5
154
100
AcDbEntity
  8
Layer_1
 62
5
100
AcDbPolyline
 90
5
 70
0
 10
115.000027
 20
310.000021
 30
0.0
 10
115.000027
 20
307.000022
 30
0.0
 10
165.000028
 20
307.000022
 30
0.0
 10
165.000028
 20
310.000021
 30
0.0
 10
115.000027
 20
310.000021
 30
0.0
  0
LWPOLYLINE
  5
155
100
AcDbEntity
  8
Layer_1
 62
5
100
AcDbPolyline
 90
5
 70
0
 10
220.000026
 20
310.000021
 30
0.0
 10
220.000026
 20
307.000022
 30
0.0
 10
270.000022
 20
307.000022
 30
0.0
 10
270.000022
 20
310.000021
 30
0.0
 10
220.000026
 20
310.000021
 30
0.0
  0
LWPOLYLINE
  5
156
100
AcDbEntity
  8
Layer_1
 62
5
100
AcDbPolyline
 90
5
 70
0
 10
314.999963
 20
310.000021
 30
0.0
 10
314.999963
 20
307.000022
 30
0.0
 10
339.999961
 20
307.000022
 30
0.0
 10
339.999961
 20
310.000021
 30
0.0
 10
314.999963
 20
310.000021
 30
0.0
  0
LWPOLYLINE
  5
157
100
AcDbEntity
  8
Layer_1
 62
5
100
AcDbPolyline
 90
5
 70
0
 10
384.999964
 20
310.000021
 30
0.0
 10
384.999964
 20
307.000022
 30
0.0
 10
415.000003
 20
307.000022
 30
0.0
 10
415.000003
 20
310.000021
 30
0.0
 10
384.999964
 20
310.000021
 30
0.0
  0
LWPOLYLINE
  5
158
100
AcDbEntity
  8
Layer_1
 62
5
100
AcDbPolyline
 90
5
 70
0
 10
10.000016
 20
310.000021
 30
0.0
 10
10.000016
 20
307.000022
 30
0.0
 10
60.000001
 20
307.000022
 30
0.0
 10
60.000001
 20
310.000021
 30
0.0
 10
10.000016
 20
310.000021
 30
0.0
  0
SPLINE
  5
159
100
AcDbEntity
  8
Layer_1
 62
7
100
AcDbSpline
 70
8
 71
3
 72
8
 73
4
 74
0
 40
0
 40
0
 40
0
 40
0
 40
1
 40
1
 40
1
 40
1
 10
59.999982
 20
195.000014
 30
0.0
 10
62.769981
 20
195.000014
 30
0.0
 10
64.999983
 20
197.230012
 30
0.0
 10
64.999983
 20
200.000012
 30
0.0
  0
LWPOLYLINE
  5
15a
100
AcDbEntity
  8
Layer_1
 62
7
100
AcDbPolyline
 90
2
 70
0
 10
14.999981
 20
195.000014
 30
0.0
 10
59.999982
 20
195.000014
 30
0.0
  0
SPLINE
  5
15b
100
AcDbEntity
  8
Layer_1
 62
7
100
AcDbSpline
 70
8
 71
3
 72
8
 73
4
 74
0
 40
0
 40
0
 40
0
 40
0
 40
1
 40
1
 40
1
 40
1
 10
64.999983
 20
225.000013
 30
0.0
 10
64.999983
 20
227.770013
 30
0.0
 10
62.769981
 20
230.000011
 30
0.0
 10
59.999982
 20
230.000011
 30
0.0
  0
LWPOLYLINE
  5
15c
100
AcDbEntity
  8
Layer_1
 62
7
100
AcDbPolyline
 90
2
 70
0
 10
64.999983
 20
200.000012
 30
0.0
 10
64.999983
 20
225.000013
 30
0.0
  0
SPLINE
  5
15d
100
AcDbEntity
  8
Layer_1
 62
7
100
AcDbSpline
 70
8
 71
3
 72
8
 73
4
 74
0
 40
0
 40
0
 40
0
 40
0
 40
1
 40
1
 40
1
 40
1
 10
14.999981
 20
230.000011
 30
0.0
 10
12.229981
 20
230.000011
 30
0.0
 10
9.999983
 20
227.770013
 30
0.0
 10
9.999983
 20
225.000013
 30
0.0
  0
LWPOLYLINE
  5
15e
100
AcDbEntity
  8
Layer_1
 62
7
100
AcDbPolyline
 90
2
 70
0
 10
59.999982
 20
230.000011
 30
0.0
 10
14.999981
 20
230.000011
 30
0.0
  0
SPLINE
  5
15f
100
AcDbEntity
  8
Layer_1
 62
7
100
AcDbSpline
 70
8
 71
3
 72
8
 73
4
 74
0
 40
0
 40
0
 40
0
 40
0
 40
1
 40
1
 40
1
 40
1
 10
9.999983
 20
200.000012
 30
0.0
 10
9.999983
 20
197.230012
 30
0.0
 10
12.229981
 20
195.000014
 30
0.0
 10
14.999981
 20
195.000014
 30
0.0
  0
LWPOLYLINE
  5
160
100
AcDbEntity
  8
Layer_1
 62
7
100
AcDbPolyline
 90
2
 70
0
 10
9.999983
 20
225.000013
 30
0.0
 10
9.999983
 20
200.000012
 30
0.0
  0
LWPOLYLINE
  5
161
100
AcDbEntity
  8
Layer_1
 62
7
100
AcDbPolyline
 90
2
 70
0
 10
14.999981
 20
195.000014
 30
0.0
 10
14.999981
 20
195.000014
 30
0.0
  0
LWPOLYLINE
  5
162
100
AcDbEntity
  8
Layer_1
 62
3
100
AcDbPolyline
 90
9
 70
0
 10
59.999984
 20
200.000012
 30
0.0
 10
59.999984
 20
211.000365
 30
0.0
 10
59.999984
 20
213.999659
 30
0.0
 10
59.999984
 20
225.000013
 30
0.0
 10
14.999987
 20
225.000013
 30
0.0
 10
14.999987
 20
213.999659
 30
0.0
 10
14.999987
 20
211.000365
 30
0.0
 10
14.999987
 20
200.000012
 30
0.0
 10
59.999984
 20
200.000012
 30
0.0
  0
SPLINE
  5
163
100
AcDbEntity
  8
Layer_1
 62
7
100
AcDbSpline
 70
8
 71
3
 72
8
 73
4
 74
0
 40
0
 40
0
 40
0
 40
0
 40
1
 40
1
 40
1
 40
1
 10
59.999982
 20
160.000013
 30
0.0
 10
62.769981
 20
160.000013
 30
0.0
 10
64.999983
 20
162.230012
 30
0.0
 10
64.999983
 20
165.000011
 30
0.0
  0
LWPOLYLINE
  5
164
100
AcDbEntity
  8
Layer_1
 62
7
100
AcDbPolyline
 90
2
 70
0
 10
14.999981
 20
160.000013
 30
0.0
 10
59.999982
 20
160.000013
 30
0.0
  0
SPLINE
  5
165
100
AcDbEntity
  8
Layer_1
 62
7
100
AcDbSpline
 70
8
 71
3
 72
8
 73
4
 74
0
 40
0
 40
0
 40
0
 40
0
 40
1
 40
1
 40
1
 40
1
 10
64.999983
 20
190.000012
 30
0.0
 10
64.999983
 20
192.770012
 30
0.0
 10
62.769981
 20
195.000011
 30
0.0
 10
59.999982
 20
195.000011
 30
0.0
  0
LWPOLYLINE
  5
166
100
AcDbEntity
  8
Layer_1
 62
7
100
AcDbPolyline
 90
2
 70
0
 10
64.999983
 20
165.000011
 30
0.0
 10
64.999983
 20
190.000012
 30
0.0
  0
SPLINE
  5
167
100
AcDbEntity
  8
Layer_1
 62
7
100
AcDbSpline
 70
8
 71
3
 72
8
 73
4
 74
0
 40
0
 40
0
 40
0
 40
0
 40
1
 40
1
 40
1
 40
1
 10
14.999981
 20
195.000011
 30
0.0
 10
12.229981
 20
195.000011
 30
0.0
 10
9.999983
 20
192.770012
 30
0.0
 10
9.999983
 20
190.000012
 30
0.0
  0
LWPOLYLINE
  5
168
100
AcDbEntity
  8
Layer_1
 62
7
100
AcDbPolyline
 90
2
 70
0
 10
59.999982
 20
195.000011
 30
0.0
 10
14.999981
 20
195.000011
 30
0.0
  0
SPLINE
  5
169
100
AcDbEntity
  8
Layer_1
 62
7
100
AcDbSpline
 70
8
 71
3
 72
8
 73
4
 74
0
 40
0
 40
0
 40
0
 40
0
 40
1
 40
1
 40
1
 40
1
 10
9.999983
 20
165.000011
 30
0.0
 10
9.999983
 20
162.230012
 30
0.0
 10
12.229981
 20
160.000013
 30
0.0
 10
14.999981
 20
160.000013
 30
0.0
  0
LWPOLYLINE
  5
16a
100
AcDbEntity
  8
Layer_1
 62
7
100
AcDbPolyline
 90
2
 70
0
 10
9.999983
 20
190.000012
 30
0.0
 10
9.999983
 20
165.000011
 30
0.0
  0
LWPOLYLINE
  5
16b
100
AcDbEntity
  8
Layer_1
 62
7
100
AcDbPolyline
 90
2
 70
0
 10
14.999981
 20
160.000013
 30
0.0
 10
14.999981
 20
160.000013
 30
0.0
  0
LWPOLYLINE
  5
16c
100
AcDbEntity
  8
Layer_1
 62
3
100
AcDbPolyline
 90
9
 70
0
 10
59.999984
 20
165.000011
 30
0.0
 10
59.999984
 20
176.000365
 30
0.0
 10
59.999984
 20
178.999659
 30
0.0
 10
59.999984
 20
190.000012
 30
0.0
 10
14.999987
 20
190.000012
 30
0.0
 10
14.999987
 20
178.999659
 30
0.0
 10
14.999987
 20
176.000365
 30
0.0
 10
14.999987
 20
165.000011
 30
0.0
 10
59.999984
 20
165.000011
 30
0.0
  0
SPLINE
  5
16d
100
AcDbEntity
  8
Layer_1
 62
7
100
AcDbSpline
 70
8
 71
3
 72
8
 73
4
 74
0
 40
0
 40
0
 40
0
 40
0
 40
1
 40
1
 40
1
 40
1
 10
114.999984
 20
195.000014
 30
0.0
 10
117.769984
 20
195.000014
 30
0.0
 10
119.999986
 20
197.230012
 30
0.0
 10
119.999986
 20
200.000012
 30
0.0
  0
LWPOLYLINE
  5
16e
100
AcDbEntity
  8
Layer_1
 62
7
100
AcDbPolyline
 90
2
 70
0
 10
69.999987
 20
195.000014
 30
0.0
 10
114.999984
 20
195.000014
 30
0.0
  0
SPLINE
  5
16f
100
AcDbEntity
  8
Layer_1
 62
7
100
AcDbSpline
 70
8
 71
3
 72
8
 73
4
 74
0
 40
0
 40
0
 40
0
 40
0
 40
1
 40
1
 40
1
 40
1
 10
119.999986
 20
225.000013
 30
0.0
 10
119.999986
 20
227.770013
 30
0.0
 10
117.769984
 20
230.000011
 30
0.0
 10
114.999984
 20
230.000011
 30
0.0
  0
LWPOLYLINE
  5
170
100
AcDbEntity
  8
Layer_1
 62
7
100
AcDbPolyline
 90
2
 70
0
 10
119.999986
 20
200.000012
 30
0.0
 10
119.999986
 20
225.000013
 30
0.0
  0
SPLINE
  5
171
100
AcDbEntity
  8
Layer_1
 62
7
100
AcDbSpline
 70
8
 71
3
 72
8
 73
4
 74
0
 40
0
 40
0
 40
0
 40
0
 40
1
 40
1
 40
1
 40
1
 10
69.999987
 20
230.000011
 30
0.0
 10
67.229987
 20
230.000011
 30
0.0
 10
64.999989
 20
227.770013
 30
0.0
 10
64.999989
 20
225.000013
 30
0.0
  0
LWPOLYLINE
  5
172
100
AcDbEntity
  8
Layer_1
 62
7
100
AcDbPolyline
 90
2
 70
0
 10
114.999984
 20
230.000011
 30
0.0
 10
69.999987
 20
230.000011
 30
0.0
  0
SPLINE
  5
173
100
AcDbEntity
  8
Layer_1
 62
7
100
AcDbSpline
 70
8
 71
3
 72
8
 73
4
 74
0
 40
0
 40
0
 40
0
 40
0
 40
1
 40
1
 40
1
 40
1
 10
64.999989
 20
200.000012
 30
0.0
 10
64.999989
 20
197.230012
 30
0.0
 10
67.229987
 20
195.000014
 30
0.0
 10
69.999987
 20
195.000014
 30
0.0
  0
LWPOLYLINE
  5
174
100
AcDbEntity
  8
Layer_1
 62
7
100
AcDbPolyline
 90
2
 70
0
 10
64.999989
 20
225.000013
 30
0.0
 10
64.999989
 20
200.000012
 30
0.0
  0
LWPOLYLINE
  5
175
100
AcDbEntity
  8
Layer_1
 62
7
100
AcDbPolyline
 90
2
 70
0
 10
69.999987
 20
195.000014
 30
0.0
 10
69.999987
 20
195.000014
 30
0.0
  0
LWPOLYLINE
  5
176
100
AcDbEntity
  8
Layer_1
 62
3
100
AcDbPolyline
 90
9
 70
0
 10
114.999987
 20
200.000012
 30
0.0
 10
114.999987
 20
211.000365
 30
0.0
 10
114.999987
 20
213.999659
 30
0.0
 10
114.999987
 20
225.000013
 30
0.0
 10
69.999993
 20
225.000013
 30
0.0
 10
69.999993
 20
213.999659
 30
0.0
 10
69.999993
 20
211.000365
 30
0.0
 10
69.999993
 20
200.000012
 30
0.0
 10
114.999987
 20
200.000012
 30
0.0
  0
SPLINE
  5
177
100
AcDbEntity
  8
Layer_1
 62
7
100
AcDbSpline
 70
8
 71
3
 72
8
 73
4
 74
0
 40
0
 40
0
 40
0
 40
0
 40
1
 40
1
 40
1
 40
1
 10
114.999984
 20
160.000013
 30
0.0
 10
117.769984
 20
160.000013
 30
0.0
 10
119.999986
 20
162.230012
 30
0.0
 10
119.999986
 20
165.000011
 30
0.0
  0
LWPOLYLINE
  5
178
100
AcDbEntity
  8
Layer_1
 62
7
100
AcDbPolyline
 90
2
 70
0
 10
69.999987
 20
160.000013
 30
0.0
 10
114.999984
 20
160.000013
 30
0.0
  0
SPLINE
  5
179
100
AcDbEntity
  8
Layer_1
 62
7
100
AcDbSpline
 70
8
 71
3
 72
8
 73
4
 74
0
 40
0
 40
0
 40
0
 40
0
 40
1
 40
1
 40
1
 40
1
 10
119.999986
 20
190.000012
 30
0.0
 10
119.999986
 20
192.770012
 30
0.0
 10
117.769984
 20
195.000011
 30
0.0
 10
114.999984
 20
195.000011
 30
0.0
  0
LWPOLYLINE
  5
17a
100
AcDbEntity
  8
Layer_1
 62
7
100
AcDbPolyline
 90
2
 70
0
 10
119.999986
 20
165.000011
 30
0.0
 10
119.999986
 20
190.000012
 30
0.0
  0
SPLINE
  5
17b
100
AcDbEntity
  8
Layer_1
 62
7
100
AcDbSpline
 70
8
 71
3
 72
8
 73
4
 74
0
 40
0
 40
0
 40
0
 40
0
 40
1
 40
1
 40
1
 40
1
 10
69.999987
 20
195.000011
 30
0.0
 10
67.229987
 20
195.000011
 30
0.0
 10
64.999989
 20
192.770012
 30
0.0
 10
64.999989
 20
190.000012
 30
0.0
  0
LWPOLYLINE
  5
17c
100
AcDbEntity
  8
Layer_1
 62
7
100
AcDbPolyline
 90
2
 70
0
 10
114.999984
 20
195.000011
 30
0.0
 10
69.999987
 20
195.000011
 30
0.0
  0
SPLINE
  5
17d
100
AcDbEntity
  8
Layer_1
 62
7
100
AcDbSpline
 70
8
 71
3
 72
8
 73
4
 74
0
 40
0
 40
0
 40
0
 40
0
 40
1
 40
1
 40
1
 40
1
 10
64.999989
 20
165.000011
 30
0.0
 10
64.999989
 20
162.230012
 30
0.0
 10
67.229987
 20
160.000013
 30
0.0
 10
69.999987
 20
160.000013
 30
0.0
  0
LWPOLYLINE
  5
17e
100
AcDbEntity
  8
Layer_1
 62
7
100
AcDbPolyline
 90
2
 70
0
 10
64.999989
 20
190.000012
 30
0.0
 10
64.999989
 20
165.000011
 30
0.0
  0
LWPOLYLINE
  5
17f
100
AcDbEntity
  8
Layer_1
 62
7
100
AcDbPolyline
 90
2
 70
0
 10
69.999987
 20
160.000013
 30
0.0
 10
69.999987
 20
160.000013
 30
0.0
  0
LWPOLYLINE
  5
180
100
AcDbEntity
  8
Layer_1
 62
3
100
AcDbPolyline
 90
9
 70
0
 10
114.999987
 20
165.000011
 30
0.0
 10
114.999987
 20
176.000365
 30
0.0
 10
114.999987
 20
178.999659
 30
0.0
 10
114.999987
 20
190.000012
 30
0.0
 10
69.999993
 20
190.000012
 30
0.0
 10
69.999993
 20
178.999659
 30
0.0
 10
69.999993
 20
176.000365
 30
0.0
 10
69.999993
 20
165.000011
 30
0.0
 10
114.999987
 20
165.000011
 30
0.0
  0
SPLINE
  5
181
100
AcDbEntity
  8
Layer_1
 62
3
100
AcDbSpline
 70
8
 71
3
 72
8
 73
4
 74
0
 40
0
 40
0
 40
0
 40
0
 40
1
 40
1
 40
1
 40
1
 10
37.500001
 20
270.000010
 30
0.0
 10
41.965821
 20
270.000010
 30
0.0
 10
46.092409
 20
267.617524
 30
0.0
 10
48.325319
 20
263.750010
 30
0.0
  0
SPLINE
  5
182
100
AcDbEntity
  8
Layer_1
 62
3
100
AcDbSpline
 70
8
 71
3
 72
8
 73
4
 74
0
 40
0
 40
0
 40
0
 40
0
 40
1
 40
1
 40
1
 40
1
 10
48.325319
 20
263.750010
 30
0.0
 10
50.558229
 20
259.882497
 30
0.0
 10
50.558229
 20
255.117523
 30
0.0
 10
48.325319
 20
251.250010
 30
0.0
  0
SPLINE
  5
183
100
AcDbEntity
  8
Layer_1
 62
3
100
AcDbSpline
 70
8
 71
3
 72
8
 73
4
 74
0
 40
0
 40
0
 40
0
 40
0
 40
1
 40
1
 40
1
 40
1
 10
48.325319
 20
251.250010
 30
0.0
 10
46.092409
 20
247.382496
 30
0.0
 10
41.965821
 20
245.000009
 30
0.0
 10
37.500001
 20
245.000010
 30
0.0
  0
SPLINE
  5
184
100
AcDbEntity
  8
Layer_1
 62
3
100
AcDbSpline
 70
8
 71
3
 72
8
 73
4
 74
0
 40
0
 40
0
 40
0
 40
0
 40
1
 40
1
 40
1
 40
1
 10
37.500001
 20
245.000010
 30
0.0
 10
33.034181
 20
245.000010
 30
0.0
 10
28.907593
 20
247.382496
 30
0.0
 10
26.674683
 20
251.250010
 30
0.0
  0
SPLINE
  5
185
100
AcDbEntity
  8
Layer_1
 62
3
100
AcDbSpline
 70
8
 71
3
 72
8
 73
4
 74
0
 40
0
 40
0
 40
0
 40
0
 40
1
 40
1
 40
1
 40
1
 10
26.674683
 20
251.250010
 30
0.0
 10
24.441773
 20
255.117523
 30
0.0
 10
24.441773
 20
259.882497
 30
0.0
 10
26.674683
 20
263.750010
 30
0.0
  0
SPLINE
  5
186
100
AcDbEntity
  8
Layer_1
 62
3
100
AcDbSpline
 70
8
 71
3
 72
8
 73
4
 74
0
 40
0
 40
0
 40
0
 40
0
 40
1
 40
1
 40
1
 40
1
 10
26.674683
 20
263.750010
 30
0.0
 10
28.907593
 20
267.617524
 30
0.0
 10
33.034181
 20
270.000010
 30
0.0
 10
37.500001
 20
270.000010
 30
0.0
  0
LWPOLYLINE
  5
187
100
AcDbEntity
  8
Layer_1
 62
7
100
AcDbPolyline
 90
5
 70
0
 10
9.999987
 20
235.000013
 30
0.0
 10
9.999987
 20
280.000013
 30
0.0
 10
414.875020
 20
280.000016
 30
0.0
 10
420.000007
 20
235.000013
 30
0.0
 10
9.999987
 20
235.000013
 30
0.0
  0
SPLINE
  5
188
100
AcDbEntity
  8
Layer_1
 62
3
100
AcDbSpline
 70
8
 71
3
 72
8
 73
4
 74
0
 40
0
 40
0
 40
0
 40
0
 40
1
 40
1
 40
1
 40
1
 10
250.000000
 20
270.000010
 30
0.0
 10
254.465820
 20
270.000010
 30
0.0
 10
258.592408
 20
267.617524
 30
0.0
 10
260.825318
 20
263.750010
 30
0.0
  0
SPLINE
  5
189
100
AcDbEntity
  8
Layer_1
 62
3
100
AcDbSpline
 70
8
 71
3
 72
8
 73
4
 74
0
 40
0
 40
0
 40
0
 40
0
 40
1
 40
1
 40
1
 40
1
 10
260.825318
 20
263.750010
 30
0.0
 10
263.058228
 20
259.882497
 30
0.0
 10
263.058228
 20
255.117523
 30
0.0
 10
260.825318
 20
251.250010
 30
0.0
  0
SPLINE
  5
18a
100
AcDbEntity
  8
Layer_1
 62
3
100
AcDbSpline
 70
8
 71
3
 72
8
 73
4
 74
0
 40
0
 40
0
 40
0
 40
0
 40
1
 40
1
 40
1
 40
1
 10
260.825318
 20
251.250010
 30
0.0
 10
258.592408
 20
247.382496
 30
0.0
 10
254.465820
 20
245.000009
 30
0.0
 10
250.000000
 20
245.000010
 30
0.0
  0
SPLINE
  5
18b
100
AcDbEntity
  8
Layer_1
 62
3
100
AcDbSpline
 70
8
 71
3
 72
8
 73
4
 74
0
 40
0
 40
0
 40
0
 40
0
 40
1
 40
1
 40
1
 40
1
 10
250.000000
 20
245.000010
 30
0.0
 10
245.534180
 20
245.000010
 30
0.0
 10
241.407592
 20
247.382496
 30
0.0
 10
239.174682
 20
251.250010
 30
0.0
  0
SPLINE
  5
18c
100
AcDbEntity
  8
Layer_1
 62
3
100
AcDbSpline
 70
8
 71
3
 72
8
 73
4
 74
0
 40
0
 40
0
 40
0
 40
0
 40
1
 40
1
 40
1
 40
1
 10
239.174682
 20
251.250010
 30
0.0
 10
236.941772
 20
255.117523
 30
0.0
 10
236.941772
 20
259.882497
 30
0.0
 10
239.174682
 20
263.750010
 30
0.0
  0
SPLINE
  5
18d
100
AcDbEntity
  8
Layer_1
 62
3
100
AcDbSpline
 70
8
 71
3
 72
8
 73
4
 74
0
 40
0
 40
0
 40
0
 40
0
 40
1
 40
1
 40
1
 40
1
 10
239.174682
 20
263.750010
 30
0.0
 10
241.407592
 20
267.617524
 30
0.0
 10
245.534180
 20
270.000010
 30
0.0
 10
250.000000
 20
270.000010
 30
0.0
  0
LWPOLYLINE
  5
18e
100
AcDbEntity
  8
Layer_1
 62
3
100
AcDbPolyline
 90
2
 70
0
 10
37.500001
 20
270.000010
 30
0.0
 10
37.500001
 20
270.000010
 30
0.0
  0
LWPOLYLINE
  5
18f
100
AcDbEntity
  8
Layer_1
 62
3
100
AcDbPolyline
 90
2
 70
0
 10
250.000000
 20
270.000010
 30
0.0
 10
250.000000
 20
270.000010
 30
0.0
  0
LWPOLYLINE
  5
190
100
AcDbEntity
  8
Layer_1
 62
5
100
AcDbPolyline
 90
5
 70
0
 10
219.999955
 20
277.000014
 30
0.0
 10
219.999955
 20
280.000014
 30
0.0
 10
164.999944
 20
280.000014
 30
0.0
 10
164.999944
 20
277.000014
 30
0.0
 10
219.999955
 20
277.000014
 30
0.0
  0
LWPOLYLINE
  5
191
100
AcDbEntity
  8
Layer_1
 62
5
100
AcDbPolyline
 90
5
 70
0
 10
314.999906
 20
277.000014
 30
0.0
 10
314.999906
 20
280.000014
 30
0.0
 10
269.999906
 20
280.000014
 30
0.0
 10
269.999906
 20
277.000014
 30
0.0
 10
314.999906
 20
277.000014
 30
0.0
  0
LWPOLYLINE
  5
192
100
AcDbEntity
  8
Layer_1
 62
5
100
AcDbPolyline
 90
5
 70
0
 10
115.000001
 20
277.000014
 30
0.0
 10
115.000001
 20
280.000014
 30
0.0
 10
60.000013
 20
280.000014
 30
0.0
 10
60.000013
 20
277.000014
 30
0.0
 10
115.000001
 20
277.000014
 30
0.0
  0
LWPOLYLINE
  5
193
100
AcDbEntity
  8
Layer_1
 62
5
100
AcDbPolyline
 90
5
 70
0
 10
384.999907
 20
277.000014
 30
0.0
 10
384.999907
 20
280.000014
 30
0.0
 10
339.999907
 20
280.000014
 30
0.0
 10
339.999907
 20
277.000014
 30
0.0
 10
384.999907
 20
277.000014
 30
0.0
  0
LWPOLYLINE
  5
194
100
AcDbEntity
  8
Layer_1
 62
5
100
AcDbPolyline
 90
5
 70
0
 10
219.999955
 20
235.000007
 30
0.0
 10
219.999955
 20
238.000007
 30
0.0
 10
164.999944
 20
238.000007
 30
0.0
 10
164.999944
 20
235.000007
 30
0.0
 10
219.999955
 20
235.000007
 30
0.0
  0
LWPOLYLINE
  5
195
100
AcDbEntity
  8
Layer_1
 62
5
100
AcDbPolyline
 90
5
 70
0
 10
314.999906
 20
235.000007
 30
0.0
 10
314.999906
 20
238.000007
 30
0.0
 10
269.999906
 20
238.000007
 30
0.0
 10
269.999906
 20
235.000007
 30
0.0
 10
314.999906
 20
235.000007
 30
0.0
  0
LWPOLYLINE
  5
196
100
AcDbEntity
  8
Layer_1
 62
5
100
AcDbPolyline
 90
5
 70
0
 10
115.000001
 20
235.000007
 30
0.0
 10
115.000001
 20
238.000007
 30
0.0
 10
60.000013
 20
238.000007
 30
0.0
 10
60.000013
 20
235.000007
 30
0.0
 10
115.000001
 20
235.000007
 30
0.0
  0
LWPOLYLINE
  5
197
100
AcDbEntity
  8
Layer_1
 62
5
100
AcDbPolyline
 90
5
 70
0
 10
384.999907
 20
235.000007
 30
0.0
 10
384.999907
 20
238.000007
 30
0.0
 10
339.999907
 20
238.000007
 30
0.0
 10
339.999907
 20
235.000007
 30
0.0
 10
384.999907
 20
235.000007
 30
0.0
  0
ENDSEC
  0
SECTION
  2
OBJECTS
  0
DICTIONARY
  5
C
330
0
100
AcDbDictionary
  3
ACAD_GROUP
350
D
  3
ACAD_MLINESTYLE
350
17
  0
DICTIONARY
  5
D
330
C
100
AcDbDictionary
  0
DICTIONARY
  5
1A
330
C
100
AcDbDictionary
  0
DICTIONARY
  5
17
330
C
100
AcDbDictionary
  3
STANDARD
350
18
  0
DICTIONARY
  5
19
330
C
100
AcDbDictionary
  0
ENDSEC
  0
EOF
