<?xml version="1.0" encoding="UTF-8" standalone="no"?>
<!-- Created with Inkscape (http://www.inkscape.org/) -->

<svg
   xmlns:dc="http://purl.org/dc/elements/1.1/"
   xmlns:cc="http://creativecommons.org/ns#"
   xmlns:rdf="http://www.w3.org/1999/02/22-rdf-syntax-ns#"
   xmlns:svg="http://www.w3.org/2000/svg"
   xmlns="http://www.w3.org/2000/svg"
   xmlns:sodipodi="http://sodipodi.sourceforge.net/DTD/sodipodi-0.dtd"
   xmlns:inkscape="http://www.inkscape.org/namespaces/inkscape"
   width="744.09448819"
   height="1052.3622047"
   id="svg3851"
   version="1.1"
   inkscape:version="0.48.3.1 r9886"
   sodipodi:docname="New document 7">
  <defs
     id="defs3853" />
  <sodipodi:namedview
     id="base"
     pagecolor="#ffffff"
     bordercolor="#666666"
     borderopacity="1.0"
     inkscape:pageopacity="0.0"
     inkscape:pageshadow="2"
     inkscape:zoom="0.7"
     inkscape:cx="-215.90959"
     inkscape:cy="822.6327"
     inkscape:document-units="px"
     inkscape:current-layer="layer1"
     showgrid="true"
     inkscape:window-width="1600"
     inkscape:window-height="852"
     inkscape:window-x="0"
     inkscape:window-y="25"
     inkscape:window-maximized="1">
    <inkscape:grid
       type="xygrid"
       id="grid3859" />
  </sodipodi:namedview>
  <metadata
     id="metadata3856">
    <rdf:RDF>
      <cc:Work
         rdf:about="">
        <dc:format>image/svg+xml</dc:format>
        <dc:type
           rdf:resource="http://purl.org/dc/dcmitype/StillImage" />
        <dc:title></dc:title>
      </cc:Work>
    </rdf:RDF>
  </metadata>
  <g
     inkscape:label="Layer 1"
     inkscape:groupmode="layer"
     id="layer1">
    <path
       sodipodi:type="arc"
       style="fill:#bebebe;fill-opacity:1;stroke:none"
       id="path3861"
       sodipodi:cx="100"
       sodipodi:cy="152.36218"
       sodipodi:rx="150"
       sodipodi:ry="150"
       d="m 250,152.36218 a 150,150 0 1 1 -300,0 150,150 0 1 1 300,0 z"
       transform="translate(-822.85714,-101.42857)" />
    <path
       sodipodi:type="arc"
       style="fill:#bebebe;fill-opacity:1;stroke:#000000;stroke-width:10;stroke-miterlimit:4;stroke-opacity:0.3802817;stroke-dasharray:none"
       id="path4371"
       sodipodi:cx="100"
       sodipodi:cy="152.36218"
       sodipodi:rx="100"
       sodipodi:ry="100"
       d="m 200,152.36218 a 100,100 0 1 1 -200,0 100,100 0 1 1 200,0 z"
       transform="translate(-818,-98)" />
    <path
       sodipodi:type="arc"
       style="fill:none;stroke:#ffffff;stroke-width:3;stroke-miterlimit:4;stroke-opacity:1;stroke-dasharray:none"
       id="path4371-6"
       sodipodi:cx="100"
       sodipodi:cy="152.36218"
       sodipodi:rx="100"
       sodipodi:ry="100"
       d="m 200,152.36218 a 100,100 0 1 1 -200,0 100,100 0 1 1 200,0 z"
       transform="translate(-820.85714,-101.42857)" />
    <path
       style="fill:#d7d7d7;fill-opacity:1;stroke:none"
       d="m -720,-97.637804 c -82.84271,0 -150,67.157274 -150,149.999984 0,82.84271 67.15729,150 150,150 82.84271,0 150,-67.15729 150,-150 0,-82.84271 -67.15729,-149.999984 -150,-149.999984 z m 0,49.999984 c 55.22847,0 100,44.77153 100,100 0,55.22847 -44.77153,100 -100,100 -55.22847,0 -100,-44.77153 -100,-100 0,-55.22847 44.77153,-100 100,-100 z"
       id="path4391"
       inkscape:connector-curvature="0" />
    <path
       sodipodi:type="arc"
       style="fill:#bebebe;fill-opacity:1;stroke:none"
       id="path3861-9"
       sodipodi:cx="100"
       sodipodi:cy="152.36218"
       sodipodi:rx="150"
       sodipodi:ry="150"
       d="m 250,152.36218 a 150,150 0 1 1 -300,0 150,150 0 1 1 300,0 z"
       transform="translate(-450,-100)" />
    <path
       sodipodi:type="arc"
       style="fill:#282828;fill-opacity:1;stroke:#000000;stroke-width:10;stroke-miterlimit:4;stroke-opacity:1;stroke-dasharray:none"
       id="path4371-8"
       sodipodi:cx="100"
       sodipodi:cy="152.36218"
       sodipodi:rx="100"
       sodipodi:ry="100"
       d="m 200,152.36218 a 100,100 0 1 1 -200,0 100,100 0 1 1 200,0 z"
       transform="translate(-448,-97.285714)" />
    <path
       sodipodi:type="arc"
       style="fill:none;stroke:#ffffff;stroke-width:2;stroke-miterlimit:4;stroke-opacity:1;stroke-dasharray:none"
       id="path4371-6-7"
       sodipodi:cx="100"
       sodipodi:cy="152.36218"
       sodipodi:rx="100"
       sodipodi:ry="100"
       d="m 200,152.36218 a 100,100 0 1 1 -200,0 100,100 0 1 1 200,0 z"
       transform="translate(-451.34191,-102)" />
    <path
       style="fill:#424242;fill-opacity:1;stroke:none"
       d="m -350,-97.637819 c -82.84271,0 -150,67.157289 -150,149.999999 0,82.84271 67.15729,150 150,150 82.84271,0 150,-67.15729 150,-150 0,-82.84271 -67.15729,-149.999999 -150,-149.999999 z m 0,49.999999 c 55.22847,0 100,44.77153 100,100 0,55.22847 -44.77153,100 -100,100 -55.22847,0 -100,-44.77153 -100,-100 0,-55.22847 44.77153,-100 100,-100 z"
       id="path4391-9"
       inkscape:connector-curvature="0" />
  </g>
</svg>
